  0
SECTION
  2
HEADER
  9
$ACADVER
  1
AC1015
  9
$ACADMAINTVER
 70
     6
  9
$DWGCODEPAGE
  3
ANSI_1252
  9
$INSBASE
 10
0.0
 20
0.0
 30
0.0
  9
$EXTMIN
 10
-19.2288175669
 20
-30.4147698055
 30
0.0
  9
$EXTMAX
 10
19.1707764909
 20
14.0040896244
 30
0.0
  9
$LIMMIN
 10
0.0
 20
0.0
  9
$LIMMAX
 10
420.0
 20
297.0
  9
$ORTHOMODE
 70
     0
  9
$REGENMODE
 70
     1
  9
$FILLMODE
 70
     1
  9
$QTEXTMODE
 70
     0
  9
$MIRRTEXT
 70
     1
  9
$LTSCALE
 40
1.0
  9
$ATTMODE
 70
     1
  9
$TEXTSIZE
 40
3.5
  9
$TRACEWID
 40
1.0
  9
$TEXTSTYLE
  7
Standard
  9
$CLAYER
  8
0
  9
$CELTYPE
  6
ByLayer
  9
$CECOLOR
 62
   256
  9
$CELTSCALE
 40
1.0
  9
$DISPSILH
 70
     0
  9
$DIMSCALE
 40
1.0
  9
$DIMASZ
 40
3.302
  9
$DIMEXO
 40
0.0
  9
$DIMDLI
 40
3.75
  9
$DIMRND
 40
0.0
  9
$DIMDLE
 40
0.0
  9
$DIMEXE
 40
1.0
  9
$DIMTP
 40
0.0
  9
$DIMTM
 40
0.0
  9
$DIMTXT
 40
3.5
  9
$DIMCEN
 40
2.5
  9
$DIMTSZ
 40
0.0
  9
$DIMTOL
 70
     0
  9
$DIMLIM
 70
     0
  9
$DIMTIH
 70
     1
  9
$DIMTOH
 70
     1
  9
$DIMSE1
 70
     0
  9
$DIMSE2
 70
     0
  9
$DIMTAD
 70
     1
  9
$DIMZIN
 70
     1
  9
$DIMBLK
  1

  9
$DIMASO
 70
     1
  9
$DIMSHO
 70
     1
  9
$DIMPOST
  1

  9
$DIMAPOST
  1

  9
$DIMALT
 70
     0
  9
$DIMALTD
 70
     3
  9
$DIMALTF
 40
0.0393700787
  9
$DIMLFAC
 40
1.0
  9
$DIMTOFL
 70
     1
  9
$DIMTVP
 40
0.0
  9
$DIMTIX
 70
     0
  9
$DIMSOXD
 70
     0
  9
$DIMSAH
 70
     0
  9
$DIMBLK1
  1

  9
$DIMBLK2
  1

  9
$DIMSTYLE
  2
ISO-25
  9
$DIMCLRD
 70
     0
  9
$DIMCLRE
 70
     0
  9
$DIMCLRT
 70
     0
  9
$DIMTFAC
 40
1.0
  9
$DIMGAP
 40
1.524
  9
$DIMJUST
 70
     0
  9
$DIMSD1
 70
     0
  9
$DIMSD2
 70
     0
  9
$DIMTOLJ
 70
     0
  9
$DIMTZIN
 70
     1
  9
$DIMALTZ
 70
     0
  9
$DIMALTTZ
 70
     0
  9
$DIMUPT
 70
     0
  9
$DIMDEC
 70
     2
  9
$DIMTDEC
 70
     2
  9
$DIMALTU
 70
     2
  9
$DIMALTTD
 70
     3
  9
$DIMTXSTY
  7
Standard
  9
$DIMAUNIT
 70
     0
  9
$DIMADEC
 70
     2
  9
$DIMALTRND
 40
0.0
  9
$DIMAZIN
 70
     0
  9
$DIMDSEP
 70
    44
  9
$DIMATFIT
 70
     3
  9
$DIMFRAC
 70
     0
  9
$DIMLDRBLK
  1

  9
$DIMLUNIT
 70
     2
  9
$DIMLWD
 70
    -2
  9
$DIMLWE
 70
    -2
  9
$DIMTMOVE
 70
     0
  9
$LUNITS
 70
     2
  9
$LUPREC
 70
     2
  9
$SKETCHINC
 40
1.0
  9
$FILLETRAD
 40
0.0
  9
$AUNITS
 70
     0
  9
$AUPREC
 70
     2
  9
$MENU
  1
.
  9
$ELEVATION
 40
0.0
  9
$PELEVATION
 40
0.0
  9
$THICKNESS
 40
0.0
  9
$LIMCHECK
 70
     0
  9
$CHAMFERA
 40
0.0
  9
$CHAMFERB
 40
0.0
  9
$CHAMFERC
 40
0.0
  9
$CHAMFERD
 40
0.0
  9
$SKPOLY
 70
     0
  9
$TDCREATE
 40
2460647.543567894
  9
$TDUCREATE
 40
2460647.793567894
  9
$TDUPDATE
 40
2460647.543606528
  9
$TDUUPDATE
 40
2460647.793606528
  9
$TDINDWG
 40
0.0000000116
  9
$TDUSRTIMER
 40
0.0000000116
  9
$USRTIMER
 70
     1
  9
$ANGBASE
 50
0.0
  9
$ANGDIR
 70
     0
  9
$PDMODE
 70
     0
  9
$PDSIZE
 40
-1.0
  9
$PLINEWID
 40
0.0
  9
$SPLFRAME
 70
     0
  9
$SPLINETYPE
 70
     6
  9
$SPLINESEGS
 70
     8
  9
$HANDSEED
  5
C1
  9
$SURFTAB1
 70
     6
  9
$SURFTAB2
 70
     6
  9
$SURFTYPE
 70
     6
  9
$SURFU
 70
     6
  9
$SURFV
 70
     6
  9
$UCSBASE
  2

  9
$UCSNAME
  2

  9
$UCSORG
 10
0.0
 20
0.0
 30
0.0
  9
$UCSXDIR
 10
1.0
 20
0.0
 30
0.0
  9
$UCSYDIR
 10
0.0
 20
1.0
 30
0.0
  9
$UCSORTHOREF
  2

  9
$UCSORTHOVIEW
 70
     0
  9
$UCSORGTOP
 10
0.0
 20
0.0
 30
0.0
  9
$UCSORGBOTTOM
 10
0.0
 20
0.0
 30
0.0
  9
$UCSORGLEFT
 10
0.0
 20
0.0
 30
0.0
  9
$UCSORGRIGHT
 10
0.0
 20
0.0
 30
0.0
  9
$UCSORGFRONT
 10
0.0
 20
0.0
 30
0.0
  9
$UCSORGBACK
 10
0.0
 20
0.0
 30
0.0
  9
$PUCSBASE
  2

  9
$PUCSNAME
  2

  9
$PUCSORG
 10
0.0
 20
0.0
 30
0.0
  9
$PUCSXDIR
 10
1.0
 20
0.0
 30
0.0
  9
$PUCSYDIR
 10
0.0
 20
1.0
 30
0.0
  9
$PUCSORTHOREF
  2

  9
$PUCSORTHOVIEW
 70
     0
  9
$PUCSORGTOP
 10
0.0
 20
0.0
 30
0.0
  9
$PUCSORGBOTTOM
 10
0.0
 20
0.0
 30
0.0
  9
$PUCSORGLEFT
 10
0.0
 20
0.0
 30
0.0
  9
$PUCSORGRIGHT
 10
0.0
 20
0.0
 30
0.0
  9
$PUCSORGFRONT
 10
0.0
 20
0.0
 30
0.0
  9
$PUCSORGBACK
 10
0.0
 20
0.0
 30
0.0
  9
$USERI1
 70
     0
  9
$USERI2
 70
     0
  9
$USERI3
 70
     0
  9
$USERI4
 70
     0
  9
$USERI5
 70
     0
  9
$USERR1
 40
0.0
  9
$USERR2
 40
0.0
  9
$USERR3
 40
0.0
  9
$USERR4
 40
0.0
  9
$USERR5
 40
0.0
  9
$WORLDVIEW
 70
     1
  9
$SHADEDGE
 70
     3
  9
$SHADEDIF
 70
    70
  9
$TILEMODE
 70
     1
  9
$MAXACTVP
 70
    64
  9
$PINSBASE
 10
0.0
 20
0.0
 30
0.0
  9
$PLIMCHECK
 70
     0
  9
$PEXTMIN
 10
1.0000000000E+20
 20
1.0000000000E+20
 30
1.0000000000E+20
  9
$PEXTMAX
 10
-1.0000000000E+20
 20
-1.0000000000E+20
 30
-1.0000000000E+20
  9
$PLIMMIN
 10
0.0
 20
0.0
  9
$PLIMMAX
 10
420.0
 20
297.0
  9
$UNITMODE
 70
     0
  9
$VISRETAIN
 70
     1
  9
$PLINEGEN
 70
     0
  9
$PSLTSCALE
 70
     1
  9
$TREEDEPTH
 70
  3020
  9
$CMLSTYLE
  2
Standard
  9
$CMLJUST
 70
     0
  9
$CMLSCALE
 40
20.0
  9
$PROXYGRAPHICS
 70
     1
  9
$MEASUREMENT
 70
     1
  9
$CELWEIGHT
370
    -1
  9
$ENDCAPS
280
     0
  9
$JOINSTYLE
280
     0
  9
$LWDISPLAY
290
     1
  9
$INSUNITS
 70
     4
  9
$HYPERLINKBASE
  1

  9
$STYLESHEET
  1

  9
$XEDIT
290
     1
  9
$CEPSNTYPE
380
     0
  9
$PSTYLEMODE
290
     1
  9
$FINGERPRINTGUID
  2
{0da386e9-c7ab-4d02-a776-b3850bb360fd}
  9
$VERSIONGUID
  2
{FAEB1C32-E019-11D5-929B-00C0DF256EC4}
  9
$EXTNAMES
290
     1
  9
$PSVPSCALE
 40
0.0
  9
$OLESTARTUP
290
     0
  0
ENDSEC
  0
SECTION
  2
CLASSES
  0
CLASS
  1
ACDBDICTIONARYWDFLT
  2
AcDbDictionaryWithDefault
  3
ObjectDBX Classes
 90
        0
280
     0
281
     0
  0
CLASS
  1
VISUALSTYLE
  2
AcDbVisualStyle
  3
ObjectDBX Classes
 90
     4095
280
     0
281
     0
  0
CLASS
  1
MATERIAL
  2
AcDbMaterial
  3
ObjectDBX Classes
 90
     1153
280
     0
281
     0
  0
CLASS
  1
SCALE
  2
AcDbScale
  3
ObjectDBX Classes
 90
     1153
280
     0
281
     0
  0
CLASS
  1
TABLESTYLE
  2
AcDbTableStyle
  3
ObjectDBX Classes
 90
     4095
280
     0
281
     0
  0
CLASS
  1
MLEADERSTYLE
  2
AcDbMLeaderStyle
  3
ACDB_MLEADERSTYLE_CLASS
 90
     4095
280
     0
281
     0
  0
CLASS
  1
SUN
  2
AcDbSun
  3
SCENEOE
 90
     1153
280
     0
281
     0
  0
CLASS
  1
ACDBPLACEHOLDER
  2
AcDbPlaceHolder
  3
ObjectDBX Classes
 90
        0
280
     0
281
     0
  0
CLASS
  1
LAYOUT
  2
AcDbLayout
  3
ObjectDBX Classes
 90
        0
280
     0
281
     0
  0
ENDSEC
  0
SECTION
  2
TABLES
  0
TABLE
  2
VPORT
  5
8
330
0
100
AcDbSymbolTable
 70
     1
  0
VPORT
  5
29
330
8
100
AcDbSymbolTableRecord
100
AcDbViewportTableRecord
  2
*Active
 70
     0
 10
0.0
 20
0.0
 11
1.0
 21
1.0
 12
-0.029020538
 22
-8.2053400905
 13
0.0
 23
0.0
 14
10.0
 24
10.0
 15
10.0
 25
10.0
 16
0.0
 26
0.0
 36
1.0
 17
0.0
 27
0.0
 37
0.0
 40
45.3072366186
 41
0.8644885202
 42
50.0
 43
0.0
 44
0.0
 50
0.0
 51
0.0
 71
     0
 72
   100
 73
     1
 74
     3
 75
     0
 76
     0
 77
     0
 78
     0
281
     0
 65
     1
110
0.0
120
0.0
130
0.0
111
1.0
121
0.0
131
0.0
112
0.0
122
1.0
132
0.0
 79
     0
146
0.0
  0
ENDTAB
  0
TABLE
  2
LTYPE
  5
5
330
0
100
AcDbSymbolTable
 70
     6
  0
LTYPE
  5
14
330
5
100
AcDbSymbolTableRecord
100
AcDbLinetypeTableRecord
  2
ByBlock
 70
     0
  3

 72
    65
 73
     0
 40
0.0
  0
LTYPE
  5
15
330
5
100
AcDbSymbolTableRecord
100
AcDbLinetypeTableRecord
  2
ByLayer
 70
     0
  3

 72
    65
 73
     0
 40
0.0
  0
LTYPE
  5
16
330
5
100
AcDbSymbolTableRecord
100
AcDbLinetypeTableRecord
  2
Continuous
 70
     0
  3
Solid line
 72
    65
 73
     0
 40
0.0
  0
LTYPE
  5
5E
330
5
100
AcDbSymbolTableRecord
100
AcDbLinetypeTableRecord
  2
HIDDEN
 70
     0
  3
Hidden __ __ __ __ __ __ __ __ __ __ __ __ __ __
 72
    65
 73
     2
 40
1.905
 49
1.27
 74
     0
 49
-0.635
 74
     0
  0
LTYPE
  5
5F
330
5
100
AcDbSymbolTableRecord
100
AcDbLinetypeTableRecord
  2
PHANTOM
 70
     0
  3
Phantom ______  __  __  ______  __  __  ______
 72
    65
 73
     6
 40
12.7
 49
6.35
 74
     0
 49
-1.27
 74
     0
 49
1.27
 74
     0
 49
-1.27
 74
     0
 49
1.27
 74
     0
 49
-1.27
 74
     0
  0
LTYPE
  5
60
330
5
100
AcDbSymbolTableRecord
100
AcDbLinetypeTableRecord
  2
CENTER
 70
     0
  3
Center ____ _ ____ _ ____ _ ____ _ ____ _ ____
 72
    65
 73
     4
 40
10.16
 49
6.35
 74
     0
 49
-1.27
 74
     0
 49
1.27
 74
     0
 49
-1.27
 74
     0
  0
LTYPE
  5
61
330
5
100
AcDbSymbolTableRecord
100
AcDbLinetypeTableRecord
  2
CENTERX2
 70
     0
  3
Center (2x) ________  __  ________  __  _____
 72
    65
 73
     4
 40
20.32
 49
12.7
 74
     0
 49
-2.54
 74
     0
 49
2.54
 74
     0
 49
-2.54
 74
     0
  0
LTYPE
  5
62
330
5
100
AcDbSymbolTableRecord
100
AcDbLinetypeTableRecord
  2
DOT2
 70
     0
  3
Dot (.5x) ........................................
 72
    65
 73
     2
 40
0.635
 49
0.0
 74
     0
 49
-0.635
 74
     0
  0
ENDTAB
  0
TABLE
  2
LAYER
  5
2
330
0
100
AcDbSymbolTable
 70
     1
  0
LAYER
  5
10
330
2
100
AcDbSymbolTableRecord
100
AcDbLayerTableRecord
  2
0
 70
     0
 62
     7
  6
Continuous
370
    -3
390
F
  0
ENDTAB
  0
TABLE
  2
STYLE
  5
3
330
0
100
AcDbSymbolTable
 70
     1
  0
STYLE
  5
11
330
3
100
AcDbSymbolTableRecord
100
AcDbTextStyleTableRecord
  2
Standard
 70
     0
 40
0.0
 41
1.0
 50
0.0
 71
     0
 42
3.5
  3
txt
  4

  0
ENDTAB
  0
TABLE
  2
VIEW
  5
6
330
0
100
AcDbSymbolTable
 70
     0
  0
ENDTAB
  0
TABLE
  2
UCS
  5
7
330
0
100
AcDbSymbolTable
 70
     0
  0
ENDTAB
  0
TABLE
  2
APPID
  5
9
330
0
100
AcDbSymbolTable
 70
     1
  0
APPID
  5
12
330
9
100
AcDbSymbolTableRecord
100
AcDbRegAppTableRecord
  2
ACAD
 70
     0
  0
ENDTAB
  0
TABLE
  2
DIMSTYLE
  5
A
330
0
100
AcDbSymbolTable
 70
     1
100
AcDbDimStyleTable
  0
DIMSTYLE
105
27
330
A
100
AcDbSymbolTableRecord
100
AcDbDimStyleTableRecord
  2
ISO-25
 70
     0
 41
2.5
 42
0.625
 43
3.75
 44
1.25
 73
     0
 74
     0
 77
     1
 78
     8
140
2.5
141
2.5
143
0.0393700787
147
0.625
171
     3
172
     1
178
     0
271
     2
272
     2
274
     3
278
    44
283
     0
284
     8
340
11
  0
ENDTAB
  0
TABLE
  2
BLOCK_RECORD
  5
1
330
0
100
AcDbSymbolTable
 70
     1
  0
BLOCK_RECORD
  5
1F
330
1
100
AcDbSymbolTableRecord
100
AcDbBlockTableRecord
  2
*Model_Space
340
22
  0
BLOCK_RECORD
  5
1B
330
1
100
AcDbSymbolTableRecord
100
AcDbBlockTableRecord
  2
*Paper_Space
340
1E
  0
BLOCK_RECORD
  5
23
330
1
100
AcDbSymbolTableRecord
100
AcDbBlockTableRecord
  2
*Paper_Space0
340
26
  0
ENDTAB
  0
ENDSEC
  0
SECTION
  2
BLOCKS
  0
BLOCK
  5
20
330
1F
100
AcDbEntity
  8
0
100
AcDbBlockBegin
  2
*Model_Space
 70
     0
 10
0.0
 20
0.0
 30
0.0
  3
*Model_Space
  1

  0
ENDBLK
  5
21
330
1F
100
AcDbEntity
  8
0
100
AcDbBlockEnd
  0
BLOCK
  5
1C
330
1B
100
AcDbEntity
 67
     1
  8
0
100
AcDbBlockBegin
  2
*Paper_Space
 70
     0
 10
0.0
 20
0.0
 30
0.0
  3
*Paper_Space
  1

  0
ENDBLK
  5
1D
330
1B
100
AcDbEntity
 67
     1
  8
0
100
AcDbBlockEnd
  0
BLOCK
  5
24
330
23
100
AcDbEntity
  8
0
100
AcDbBlockBegin
  2
*Paper_Space0
 70
     0
 10
0.0
 20
0.0
 30
0.0
  3
*Paper_Space0
  1

  0
ENDBLK
  5
25
330
23
100
AcDbEntity
  8
0
100
AcDbBlockEnd
  0
ENDSEC
  0
SECTION
  2
ENTITIES
  0
LINE
  5
63
330
1F
100
AcDbEntity
  8
0
  6
Continuous
 62
     7
100
AcDbLine
 10
-18.1256134335
 20
13.0677002982
 30
0.0
 11
-18.1256134335
 21
13.2556826954
 31
0.0
  0
LINE
  5
64
330
1F
100
AcDbEntity
  8
0
  6
Continuous
 62
     7
100
AcDbLine
 10
-5.5151161097
 20
6.2736064974
 30
0.0
 11
-5.5151161097
 21
5.8188074004
 31
0.0
  0
LINE
  5
65
330
1F
100
AcDbEntity
  8
0
  6
Continuous
 62
     7
100
AcDbLine
 10
-6.1459525202
 20
4.6794702024
 30
0.0
 11
-6.8155572776
 21
4.630325567
 31
0.0
  0
LINE
  5
66
330
1F
100
AcDbEntity
  8
0
  6
Continuous
 62
     7
100
AcDbLine
 10
-8.1413231372
 20
3.9598715455
 30
0.0
 11
-8.3008395681
 21
3.7092028682
 31
0.0
  0
LINE
  5
67
330
1F
100
AcDbEntity
  8
0
  6
Continuous
 62
     7
100
AcDbLine
 10
-8.3008395681
 20
3.7092028682
 30
0.0
 11
-7.8496359491
 21
3.2443264122
 31
0.0
  0
LINE
  5
68
330
1F
100
AcDbEntity
  8
0
  6
Continuous
 62
     7
100
AcDbLine
 10
-7.8496359491
 20
3.2443264122
 30
0.0
 11
-7.0247081203
 21
3.9325258716
 31
0.0
  0
LINE
  5
69
330
1F
100
AcDbEntity
  8
0
  6
Continuous
 62
     7
100
AcDbLine
 10
-7.0247081203
 20
3.9325258716
 30
0.0
 11
-5.785037571
 21
4.5569187586
 31
0.0
  0
LINE
  5
6A
330
1F
100
AcDbEntity
  8
0
  6
Continuous
 62
     7
100
AcDbLine
 10
7.0366100311
 20
10.8755189149
 30
0.0
 11
7.5193052901
 21
10.8584794186
 31
0.0
  0
LINE
  5
6B
330
1F
100
AcDbEntity
  8
0
  6
Continuous
 62
     7
100
AcDbLine
 10
-5.785037571
 20
1.7708767562
 30
0.0
 11
-6.2686772586
 21
0.0994428004
 31
0.0
  0
LINE
  5
6C
330
1F
100
AcDbEntity
  8
0
  6
Continuous
 62
     7
100
AcDbLine
 10
-6.348476145
 20
-0.426534343
 30
0.0
 11
-6.348476145
 21
-1.6583130665
 31
0.0
  0
LINE
  5
6D
330
1F
100
AcDbEntity
  8
0
  6
Continuous
 62
     7
100
AcDbLine
 10
-6.348476145
 20
-1.6583130665
 30
0.0
 11
-6.0268574148
 21
-2.0438295577
 31
0.0
  0
LINE
  5
6E
330
1F
100
AcDbEntity
  8
0
  6
Continuous
 62
     7
100
AcDbLine
 10
-6.0268574148
 20
-2.0438295577
 30
0.0
 11
-2.8015470497
 21
-2.0438295577
 31
0.0
  0
LINE
  5
6F
330
1F
100
AcDbEntity
  8
0
  6
Continuous
 62
     7
100
AcDbLine
 10
-2.8015470497
 20
-2.0438295577
 30
0.0
 11
-0.6528732296
 21
-0.9615931115
 31
0.0
  0
LINE
  5
70
330
1F
100
AcDbEntity
  8
0
  6
Continuous
 62
     7
100
AcDbLine
 10
-0.6528732296
 20
-0.9615931115
 30
0.0
 11
-0.4047727865
 21
-0.9088573371
 31
0.0
  0
LINE
  5
71
330
1F
100
AcDbEntity
  8
0
  6
Continuous
 62
     7
100
AcDbLine
 10
2.9831114145
 20
0.9351597783
 30
0.0
 11
3.853102549
 21
1.2725276698
 31
0.0
  0
LINE
  5
72
330
1F
100
AcDbEntity
  8
0
  6
Continuous
 62
     7
100
AcDbLine
 10
3.853102549
 20
1.2725276698
 30
0.0
 11
4.2236331596
 21
1.2725276698
 31
0.0
  0
LINE
  5
73
330
1F
100
AcDbEntity
  8
0
  6
Continuous
 62
     7
100
AcDbLine
 10
4.8617200529
 20
0.1263593507
 30
0.0
 11
4.6347562281
 21
-0.0289316873
 31
0.0
  0
LINE
  5
74
330
1F
100
AcDbEntity
  8
0
  6
Continuous
 62
     7
100
AcDbLine
 10
4.6347562281
 20
-0.0289316873
 30
0.0
 11
5.5955931211
 21
0.186086673
 31
0.0
  0
LINE
  5
75
330
1F
100
AcDbEntity
  8
0
  6
Continuous
 62
     7
100
AcDbLine
 10
5.5955931211
 20
0.186086673
 30
0.0
 11
6.6193084827
 21
0.4151761262
 31
0.0
  0
LINE
  5
76
330
1F
100
AcDbEntity
  8
0
  6
Continuous
 62
     7
100
AcDbLine
 10
19.1707764909
 20
4.3709575846
 30
0.0
 11
18.9884970859
 21
4.0904855383
 31
0.0
  0
LINE
  5
77
330
1F
100
AcDbEntity
  8
0
  6
Continuous
 62
     7
100
AcDbLine
 10
18.9884970859
 20
4.0904855383
 30
0.0
 11
18.41431696
 21
3.0950017494
 31
0.0
  0
LINE
  5
78
330
1F
100
AcDbEntity
  8
0
  6
Continuous
 62
     7
100
AcDbLine
 10
1.1359794517
 20
-6.4340480536
 30
0.0
 11
0.7035482111
 21
-6.7330246071
 31
0.0
  0
LINE
  5
79
330
1F
100
AcDbEntity
  8
0
  6
Continuous
 62
     7
100
AcDbLine
 10
0.7035482111
 20
-6.7330246071
 30
0.0
 11
0.7035482111
 21
-6.9379206375
 31
0.0
  0
LINE
  5
7A
330
1F
100
AcDbEntity
  8
0
  6
Continuous
 62
     7
100
AcDbLine
 10
0.7035482111
 20
-6.9379206375
 30
0.0
 11
-1.6037924453
 21
-8.1343515526
 31
0.0
  0
LINE
  5
7B
330
1F
100
AcDbEntity
  8
0
  6
Continuous
 62
     7
100
AcDbLine
 10
-1.6037924453
 20
-8.2004280093
 30
0.0
 11
-1.8629186071
 21
-9.7654648894
 31
0.0
  0
LINE
  5
7C
330
1F
100
AcDbEntity
  8
0
  6
Continuous
 62
     7
100
AcDbLine
 10
-1.9311067238
 20
-17.4849861456
 30
0.0
 11
-1.8629186071
 21
-20.1507993015
 31
0.0
  0
LINE
  5
7D
330
1F
100
AcDbEntity
  8
0
  6
Continuous
 62
     7
100
AcDbLine
 10
-5.4008893315
 20
-12.8093666813
 30
0.0
 11
-5.5271131587
 21
-10.3524329322
 31
0.0
  0
LINE
  5
7E
330
1F
100
AcDbEntity
  8
0
  6
Continuous
 62
     7
100
AcDbLine
 10
-5.5271131587
 20
-10.3524329322
 30
0.0
 11
-5.9486932858
 21
-10.6605107174
 31
0.0
  0
LINE
  5
7F
330
1F
100
AcDbEntity
  8
0
  6
Continuous
 62
     7
100
AcDbLine
 10
-5.9486932858
 20
-10.6605107174
 30
0.0
 11
-6.1270541088
 21
-10.6605107174
 31
0.0
  0
LINE
  5
80
330
1F
100
AcDbEntity
  8
0
  6
Continuous
 62
     7
100
AcDbLine
 10
-6.1270541088
 20
-10.6605107174
 30
0.0
 11
-6.5257476696
 21
-11.0531570757
 31
0.0
  0
LINE
  5
81
330
1F
100
AcDbEntity
  8
0
  6
Continuous
 62
     7
100
AcDbLine
 10
-6.5257476696
 20
-11.0531570757
 30
0.0
 11
-6.5547702365
 21
-11.8730445893
 31
0.0
  0
LINE
  5
82
330
1F
100
AcDbEntity
  8
0
  6
Continuous
 62
     7
100
AcDbLine
 10
-6.5547702365
 20
-11.8730445893
 30
0.0
 11
-6.7375349768
 21
-12.006603438
 31
0.0
  0
LINE
  5
83
330
1F
100
AcDbEntity
  8
0
  6
Continuous
 62
     7
100
AcDbLine
 10
-6.7375349768
 20
-12.006603438
 30
0.0
 11
-6.9344821528
 21
-12.006603438
 31
0.0
  0
LINE
  5
84
330
1F
100
AcDbEntity
  8
0
  6
Continuous
 62
     7
100
AcDbLine
 10
-6.9344821528
 20
-12.006603438
 30
0.0
 11
-6.9344821528
 21
-12.0471799904
 31
0.0
  0
LINE
  5
85
330
1F
100
AcDbEntity
  8
0
  6
Continuous
 62
     7
100
AcDbLine
 10
-6.9344821528
 20
-12.0471799904
 30
0.0
 11
-7.1884296127
 21
-12.0471799904
 31
0.0
  0
LINE
  5
86
330
1F
100
AcDbEntity
  8
0
  6
Continuous
 62
     7
100
AcDbLine
 10
-7.1884296127
 20
-12.0471799904
 30
0.0
 11
-7.1884296127
 21
-12.0907138406
 31
0.0
  0
LINE
  5
87
330
1F
100
AcDbEntity
  8
0
  6
Continuous
 62
     7
100
AcDbLine
 10
-7.1884296127
 20
-12.0907138406
 30
0.0
 11
-7.3577279194
 21
-12.0907138406
 31
0.0
  0
LINE
  5
88
330
1F
100
AcDbEntity
  8
0
  6
Continuous
 62
     7
100
AcDbLine
 10
-1.6037924453
 20
-8.2004280093
 30
0.0
 11
-1.6037924453
 21
-8.1343515526
 31
0.0
  0
SPLINE
  5
89
330
1F
100
AcDbEntity
  8
0
  6
Continuous
 62
     7
100
AcDbSpline
210
0.0
220
0.0
230
1.0
 70
     8
 71
     3
 72
    40
 73
    36
 74
     0
 42
0.00000001
 43
0.00000001
 40
0.0
 40
0.0
 40
0.0
 40
0.0
 40
0.1832874369018479
 40
0.2862662028973844
 40
0.3187990543502268
 40
0.3429888169486157
 40
0.3945621181546226
 40
0.4114403193293117
 40
0.4301306154407795
 40
0.4333201166812166
 40
0.4361259176162317
 40
0.4648025202411027
 40
0.4826682714859354
 40
0.4999784251343707
 40
0.5383812395947527
 40
0.5539021210972116
 40
0.564632150581881
 40
0.5794743009518026
 40
0.6056840174956104
 40
0.6419162020775779
 40
0.6607699875091761
 40
0.6753650102554329
 40
0.7141013563894735
 40
0.746031205857236
 40
0.7946136312941441
 40
0.8156675970749835
 40
0.8424274566846199
 40
0.8687504331574137
 40
0.8790897118559321
 40
0.8884644195339607
 40
0.9347928540971066
 40
0.9591513084462505
 40
0.9702072807503855
 40
0.9789567933038201
 40
0.9999999999999999
 40
0.9999999999999999
 40
0.9999999999999999
 40
0.9999999999999999
 10
-7.391221821308136
 20
-12.04200662209856
 30
0.0
 10
-7.945998732200413
 20
-13.05103574318049
 30
0.0
 10
-8.16779573238363
 20
-13.65878170226854
 30
0.0
 10
-8.262855667044262
 20
-13.83971420410534
 30
0.0
 10
-8.378256349768728
 20
-13.93859536010809
 30
0.0
 10
-8.678747797432045
 20
-13.81741981894026
 30
0.0
 10
-8.775079968774737
 20
-13.77310662319871
 30
0.0
 10
-8.83504538516137
 20
-13.67215326587491
 30
0.0
 10
-8.850167993261685
 20
-13.6590072817423
 30
0.0
 10
-8.867787143877576
 20
-13.65847594638404
 30
0.0
 10
-9.013927173082227
 20
-13.76383221953944
 30
0.0
 10
-9.12610837555752
 20
-13.76020664943488
 30
0.0
 10
-9.219878531884904
 20
-13.70512883566066
 30
0.0
 10
-9.388387663167457
 20
-13.53246752901022
 30
0.0
 10
-9.475241270528208
 20
-13.48814673686398
 30
0.0
 10
-9.52125475524432
 20
-13.53741042601201
 30
0.0
 10
-9.564964162047495
 20
-13.61977539852675
 30
0.0
 10
-9.694973814275414
 20
-13.72082177583468
 30
0.0
 10
-9.863867717558533
 20
-13.87342585577655
 30
0.0
 10
-9.957823057414268
 20
-13.94555134171108
 30
0.0
 10
-10.04946621702361
 20
-13.94256655326558
 30
0.0
 10
-10.19246011203952
 20
-13.74565169720543
 30
0.0
 10
-10.33754961305026
 20
-13.60713162181368
 30
0.0
 10
-10.64263472269726
 20
-13.59825657241009
 30
0.0
 10
-10.72556976891057
 20
-13.49521786698631
 30
0.0
 10
-10.74010047857984
 20
-13.32773089742772
 30
0.0
 10
-10.75048316671704
 20
-13.16268571678908
 30
0.0
 10
-10.77481329668963
 20
-13.10245899395922
 30
0.0
 10
-10.82289335278553
 20
-13.06844420199313
 30
0.0
 10
-11.10554840248367
 20
-12.99902964718595
 30
0.0
 10
-11.24869744100125
 20
-12.94493354590437
 30
0.0
 10
-11.312385044422
 20
-12.91721519964881
 30
0.0
 10
-11.34109852973284
 20
-12.87034293932753
 30
0.0
 10
-11.28340166738641
 20
-12.75139592417185
 30
0.0
 10
-11.31661227175343
 20
-12.79010931999048
 30
0.0
 10
-11.28340166738641
 20
-12.75139592417186
 30
0.0
  0
SPLINE
  5
8A
330
1F
100
AcDbEntity
  8
0
  6
Continuous
 62
     7
100
AcDbSpline
210
0.0
220
0.0
230
1.0
 70
     8
 71
     3
 72
     9
 73
     5
 74
     0
 42
0.00000001
 43
0.00000001
 40
0.0
 40
0.0
 40
0.0
 40
0.0
 40
0.561874952092535
 40
1.0
 40
1.0
 40
1.0
 40
1.0
 10
-11.28339767456055
 20
-12.75139592417185
 30
0.0
 10
-11.00757820943523
 20
-11.83563685593789
 30
0.0
 10
-10.89233890956642
 20
-11.09884039919064
 30
0.0
 10
-10.92346216169402
 20
-11.34609886103685
 30
0.0
 10
-10.89233890956642
 20
-11.09884039919064
 30
0.0
  0
SPLINE
  5
8B
330
1F
100
AcDbEntity
  8
0
  6
Continuous
 62
     7
100
AcDbSpline
210
0.0
220
0.0
230
1.0
 70
     8
 71
     3
 72
     9
 73
     5
 74
     0
 42
0.00000001
 43
0.00000001
 40
0.0
 40
0.0
 40
0.0
 40
0.0
 40
0.5600044226317911
 40
1.0
 40
1.0
 40
1.0
 40
1.0
 10
-10.89233160018921
 20
-11.09884039919064
 30
0.0
 10
-9.34357645349098
 20
-8.531360730328618
 30
0.0
 10
-7.990905545095586
 20
-6.602527384942846
 30
0.0
 10
-8.451755419568766
 20
-7.238986599228288
 30
0.0
 10
-7.990905545095586
 20
-6.602527384942846
 30
0.0
  0
SPLINE
  5
8C
330
1F
100
AcDbEntity
  8
0
  6
Continuous
 62
     7
100
AcDbSpline
210
0.0
220
0.0
230
1.0
 70
     8
 71
     3
 72
    10
 73
     6
 74
     0
 42
0.00000001
 43
0.00000001
 40
0.0
 40
0.0
 40
0.0
 40
0.0
 40
0.5601749998297245
 40
0.7805049844173269
 40
1.0
 40
1.0
 40
1.0
 40
1.0
 10
-7.990904152393341
 20
-6.602527384942846
 30
0.0
 10
-10.62595518237241
 20
-3.899638719705584
 30
0.0
 10
-11.55852649896846
 20
-2.744348870641364
 30
0.0
 10
-12.29274136291144
 20
-1.460356467681251
 30
0.0
 10
-12.06354217872287
 20
-1.898711018002708
 30
0.0
 10
-12.29274136291144
 20
-1.460356467681251
 30
0.0
  0
SPLINE
  5
8D
330
1F
100
AcDbEntity
  8
0
  6
Continuous
 62
     7
100
AcDbSpline
210
0.0
220
0.0
230
1.0
 70
     8
 71
     3
 72
     9
 73
     5
 74
     0
 42
0.00000001
 43
0.00000001
 40
0.0
 40
0.0
 40
0.0
 40
0.0
 40
0.5634129021567365
 40
1.0
 40
1.0
 40
1.0
 40
1.0
 10
-12.29273527860641
 20
-1.460356467681251
 30
0.0
 10
-12.36668513379531
 20
-0.1644710022639287
 30
0.0
 10
-12.16944361387057
 20
0.8218114382142292
 30
0.0
 10
-12.25371263519896
 20
0.4943527907447525
 30
0.0
 10
-12.16944361387057
 20
0.8218114382142292
 30
0.0
  0
SPLINE
  5
8E
330
1F
100
AcDbEntity
  8
0
  6
Continuous
 62
     7
100
AcDbSpline
210
0.0
220
0.0
230
1.0
 70
     8
 71
     3
 72
    18
 73
    14
 74
     0
 42
0.00000001
 43
0.00000001
 40
0.0
 40
0.0
 40
0.0
 40
0.0
 40
0.0861825041726207
 40
0.154938910440088
 40
0.2779541525485714
 40
0.4975969145048506
 40
0.7429997551569419
 40
0.8731238371677292
 40
0.9120670301739182
 40
0.9377191852276783
 40
0.9682636557691462
 40
0.983700304537405
 40
1.0
 40
1.0
 40
1.0
 40
1.0
 10
-12.16944307088852
 20
0.8218114382142292
 30
0.0
 10
-12.4849711164678
 20
1.948106889794063
 30
0.0
 10
-12.88721653083733
 20
2.790112389500328
 30
0.0
 10
-13.58367370155988
 20
4.30745694230007
 30
0.0
 10
-14.59508094405139
 20
7.111596183130307
 30
0.0
 10
-15.62927049932341
 20
10.27753775954524
 30
0.0
 10
-16.22737404466763
 20
11.93920087558906
 30
0.0
 10
-16.49496189207606
 20
12.39498898537714
 30
0.0
 10
-16.77820875440491
 20
12.59741936678288
 30
0.0
 10
-17.19254451107199
 20
12.5842306937028
 30
0.0
 10
-17.40166573857298
 20
12.59689256491644
 30
0.0
 10
-17.58197595611265
 20
12.72505397109425
 30
0.0
 10
-17.52536560482097
 20
12.67296696029165
 30
0.0
 10
-17.58197595611265
 20
12.72505397109425
 30
0.0
  0
LWPOLYLINE
  5
8F
330
1F
100
AcDbEntity
  8
0
  6
Continuous
 62
     7
100
AcDbPolyline
 90
        2
 70
   128
 43
0.0
 10
0.0
 20
0.0
 10
0.0
 20
0.0
  0
SPLINE
  5
90
330
1F
100
AcDbEntity
  8
0
  6
Continuous
 62
     7
100
AcDbSpline
210
0.0
220
0.0
230
1.0
 70
     8
 71
     3
 72
    11
 73
     7
 74
     0
 42
0.00000001
 43
0.00000001
 40
0.0
 40
0.0
 40
0.0
 40
0.0
 40
0.291424428112851
 40
0.42959476844721
 40
0.604206519858711
 40
1.0
 40
1.0
 40
1.0
 40
1.0
 10
-18.29537749290466
 20
12.80057441423669
 30
0.0
 10
-18.39410269098316
 20
12.9012844226053
 30
0.0
 10
-18.37738735587075
 20
12.96602615608092
 30
0.0
 10
-18.31049712438505
 20
13.01765869162974
 30
0.0
 10
-18.12561343354178
 20
13.06770029819607
 30
0.0
 10
-18.18865823313629
 20
13.05645634003074
 30
0.0
 10
-18.12561343354178
 20
13.06770029819607
 30
0.0
  0
SPLINE
  5
91
330
1F
100
AcDbEntity
  8
0
  6
Continuous
 62
     7
100
AcDbSpline
210
0.0
220
0.0
230
1.0
 70
     8
 71
     3
 72
    10
 73
     6
 74
     0
 42
0.00000001
 43
0.00000001
 40
0.0
 40
0.0
 40
0.0
 40
0.0
 40
0.2482747782375598
 40
0.4964612424014549
 40
1.0
 40
1.0
 40
1.0
 40
1.0
 10
-18.12560856342316
 20
13.25568269541395
 30
0.0
 10
-18.34493833537362
 20
13.43026141508062
 30
0.0
 10
-18.62455088238044
 20
13.411708629621
 30
0.0
 10
-19.17126846093583
 20
13.25568269541395
 30
0.0
 10
-18.99499026949109
 20
13.31007542155537
 30
0.0
 10
-19.17126846093583
 20
13.25568269541395
 30
0.0
  0
SPLINE
  5
92
330
1F
100
AcDbEntity
  8
0
  6
Continuous
 62
     7
100
AcDbSpline
210
0.0
220
0.0
230
1.0
 70
     8
 71
     3
 72
    10
 73
     6
 74
     0
 42
0.00000001
 43
0.00000001
 40
0.0
 40
0.0
 40
0.0
 40
0.0
 40
0.26998177339004
 40
0.4418240954893908
 40
1.0
 40
1.0
 40
1.0
 40
1.0
 10
-19.17126774787903
 20
13.25568269541395
 30
0.0
 10
-19.21146258597661
 20
13.25203522802676
 30
0.0
 10
-19.23282295757494
 20
13.26630610529428
 30
0.0
 10
-19.21904244044423
 20
13.34860289379344
 30
0.0
 10
-19.23413406811324
 20
13.31784998312834
 30
0.0
 10
-19.21904244044423
 20
13.34860289379344
 30
0.0
  0
SPLINE
  5
93
330
1F
100
AcDbEntity
  8
0
  6
Continuous
 62
     7
100
AcDbSpline
210
0.0
220
0.0
230
1.0
 70
     8
 71
     3
 72
    14
 73
    10
 74
     0
 42
0.00000001
 43
0.00000001
 40
0.0
 40
0.0
 40
0.0
 40
0.0
 40
0.0639507890206099
 40
0.1408080099813518
 40
0.3618970389368443
 40
0.8110855722657221
 40
0.8534578262620373
 40
0.8894827850372035
 40
1.0
 40
1.0
 40
1.0
 40
1.0
 10
-19.2190408706665
 20
13.34860289379344
 30
0.0
 10
-19.20611569476252
 20
13.38106807396798
 30
0.0
 10
-19.16928534645681
 20
13.40124645217352
 30
0.0
 10
-19.04953273634385
 20
13.41716329673372
 30
0.0
 10
-18.80499212270471
 20
13.43818079684343
 30
0.0
 10
-18.78572240284006
 20
13.45101537524833
 30
0.0
 10
-18.7776523621988
 20
13.46896957364073
 30
0.0
 10
-18.80270210210365
 20
13.52391697677506
 30
0.0
 10
-18.78866020588313
 20
13.50622709287157
 30
0.0
 10
-18.80270210210365
 20
13.52391697677506
 30
0.0
  0
SPLINE
  5
94
330
1F
100
AcDbEntity
  8
0
  6
Continuous
 62
     7
100
AcDbSpline
210
0.0
220
0.0
230
1.0
 70
     8
 71
     3
 72
    25
 73
    21
 74
     0
 42
0.00000001
 43
0.00000001
 40
0.0
 40
0.0
 40
0.0
 40
0.0
 40
0.0423999639050266
 40
0.0684525540752527
 40
0.2488549661213165
 40
0.3542980611950943
 40
0.4377619409948139
 40
0.4845699578098789
 40
0.531566573293088
 40
0.6222375622258635
 40
0.6731941075574832
 40
0.7162474532720363
 40
0.7667897519034865
 40
0.8370711440812814
 40
0.9725718527294789
 40
0.9940791846139501
 40
0.9949814331328325
 40
0.9950325249521017
 40
0.9951685603444405
 40
1.0
 40
1.0
 40
1.0
 40
1.0
 10
-19.22710239887238
 20
13.77104009961176
 30
0.0
 10
-19.23409153728711
 20
13.81902136439552
 30
0.0
 10
-19.21035973540464
 20
13.83703338860114
 30
0.0
 10
-19.01069448530081
 20
13.78511853464277
 30
0.0
 10
-18.90364227597107
 20
13.72962154074547
 30
0.0
 10
-18.80829770155137
 20
13.72519277866722
 30
0.0
 10
-18.77426998948068
 20
13.76651375403303
 30
0.0
 10
-18.76578802618596
 20
13.81958446898136
 30
0.0
 10
-18.83028086961804
 20
13.90077643991049
 30
0.0
 10
-18.83667861386195
 20
13.95869690765746
 30
0.0
 10
-18.81329688348758
 20
14.00202544307783
 30
0.0
 10
-18.75574136198182
 20
14.00732523560095
 30
0.0
 10
-18.68064787379537
 20
13.97867813352302
 30
0.0
 10
-18.54947688224542
 20
13.89618341844405
 30
0.0
 10
-18.52990835481178
 20
13.88128371787288
 30
0.0
 10
-18.52911846812299
 20
13.88061988727694
 30
0.0
 10
-18.5290818147087
 20
13.88057438681535
 30
0.0
 10
-18.52921432131443
 20
13.88065589188298
 30
0.0
 10
-18.53359624103439
 20
13.88402126989522
 30
0.0
 10
-18.53267292501573
 20
13.8832517933507
 30
0.0
 10
-18.53359624103439
 20
13.88402126989522
 30
0.0
  0
SPLINE
  5
95
330
1F
100
AcDbEntity
  8
0
  6
Continuous
 62
     7
100
AcDbSpline
210
0.0
220
0.0
230
1.0
 70
     8
 71
     3
 72
    11
 73
     7
 74
     0
 42
0.00000001
 43
0.00000001
 40
0.0
 40
0.0
 40
0.0
 40
0.0
 40
0.2520984779563142
 40
0.49877617269464
 40
0.7804328566194175
 40
1.0
 40
1.0
 40
1.0
 40
1.0
 10
-18.53358745574951
 20
13.88402126989522
 30
0.0
 10
-16.58502438040225
 20
13.19763602715096
 30
0.0
 10
-15.09889296981415
 20
11.82728496212284
 30
0.0
 10
-14.13002057210306
 20
9.732333315889772
 30
0.0
 10
-13.32063652065807
 20
8.125323361909853
 30
0.0
 10
-13.60537785846163
 20
8.65309712080743
 30
0.0
 10
-13.32063652065807
 20
8.125323361909853
 30
0.0
  0
SPLINE
  5
96
330
1F
100
AcDbEntity
  8
0
  6
Continuous
 62
     7
100
AcDbSpline
210
0.0
220
0.0
230
1.0
 70
     8
 71
     3
 72
     9
 73
     5
 74
     0
 42
0.00000001
 43
0.00000001
 40
0.0
 40
0.0
 40
0.0
 40
0.0
 40
0.5590638257461518
 40
1.0
 40
1.0
 40
1.0
 40
1.0
 10
-13.32063227891922
 20
8.125323361909853
 30
0.0
 10
-12.24004066640967
 20
5.054043496456661
 30
0.0
 10
-10.89233890956642
 20
2.868236113711743
 30
0.0
 10
-11.37798197582767
 20
3.579456505187602
 30
0.0
 10
-10.89233890956642
 20
2.868236113711743
 30
0.0
  0
SPLINE
  5
97
330
1F
100
AcDbEntity
  8
0
  6
Continuous
 62
     7
100
AcDbSpline
210
0.0
220
0.0
230
1.0
 70
     8
 71
     3
 72
    10
 73
     6
 74
     0
 42
0.00000001
 43
0.00000001
 40
0.0
 40
0.0
 40
0.0
 40
0.0
 40
0.4995296645042933
 40
0.7493665012055228
 40
1.0
 40
1.0
 40
1.0
 40
1.0
 10
-10.89233160018921
 20
2.868236113711743
 30
0.0
 10
-10.45354398103433
 20
4.325843523587995
 30
0.0
 10
-10.5738211533989
 20
5.077612064389885
 30
0.0
 10
-11.1218782570752
 20
5.609550369849874
 30
0.0
 10
-10.90691865403646
 20
5.451922708044011
 30
0.0
 10
-11.1218782570752
 20
5.609550369849874
 30
0.0
  0
SPLINE
  5
98
330
1F
100
AcDbEntity
  8
0
  6
Continuous
 62
     7
100
AcDbSpline
210
0.0
220
0.0
230
1.0
 70
     8
 71
     3
 72
    13
 73
     9
 74
     0
 42
0.00000001
 43
0.00000001
 40
0.0
 40
0.0
 40
0.0
 40
0.0
 40
0.1450486290775206
 40
0.3491094472297512
 40
0.555747933825208
 40
0.7040554614072476
 40
0.8091510899195835
 40
1.0
 40
1.0
 40
1.0
 40
1.0
 10
-11.12187653779984
 20
5.609550369849874
 30
0.0
 10
-11.20011420227443
 20
5.784471647431722
 30
0.0
 10
-11.4108647350458
 20
5.952572877506313
 30
0.0
 10
-11.62663875598282
 20
6.119794257625624
 30
0.0
 10
-11.71994516567904
 20
6.292075985341633
 30
0.0
 10
-11.65115330940126
 20
6.412675205595892
 30
0.0
 10
-11.43349355227093
 20
6.539923615561261
 30
0.0
 10
-11.51074245415507
 20
6.507356321162969
 30
0.0
 10
-11.43349355227093
 20
6.539923615561261
 30
0.0
  0
SPLINE
  5
99
330
1F
100
AcDbEntity
  8
0
  6
Continuous
 62
     7
100
AcDbSpline
210
0.0
220
0.0
230
1.0
 70
     8
 71
     3
 72
     9
 73
     5
 74
     0
 42
0.00000001
 43
0.00000001
 40
0.0
 40
0.0
 40
0.0
 40
0.0
 40
0.5846091107719904
 40
1.0
 40
1.0
 40
1.0
 40
1.0
 10
-11.43348962068558
 20
6.539923615561261
 30
0.0
 10
-11.35753010132546
 20
6.665223158700956
 30
0.0
 10
-11.37775556076838
 20
6.767352885034274
 30
0.0
 10
-11.36587687243619
 20
6.732402788986099
 30
0.0
 10
-11.37775556076838
 20
6.767352885034274
 30
0.0
  0
SPLINE
  5
9A
330
1F
100
AcDbEntity
  8
0
  6
Continuous
 62
     7
100
AcDbSpline
210
0.0
220
0.0
230
1.0
 70
     8
 71
     3
 72
    19
 73
    15
 74
     0
 42
0.00000001
 43
0.00000001
 40
0.0
 40
0.0
 40
0.0
 40
0.0
 40
0.0804600148456637
 40
0.1070300728408269
 40
0.1208820351840141
 40
0.1401130053657657
 40
0.1964035542083904
 40
0.3176207617183197
 40
0.3480637933543145
 40
0.3811664912555825
 40
0.701579412578689
 40
0.7350619486471969
 40
0.7854886785456123
 40
1.0
 40
1.0
 40
1.0
 40
1.0
 10
-11.37775182723999
 20
6.767352885034274
 30
0.0
 10
-11.4220792082657
 20
6.829955699128769
 30
0.0
 10
-11.42646382064243
 20
6.854904190831096
 30
0.0
 10
-11.4169525142633
 20
6.864065594779265
 30
0.0
 10
-11.39885579932312
 20
6.867006074207564
 30
0.0
 10
-11.3454950926959
 20
6.861297394132616
 30
0.0
 10
-11.23022721500785
 20
6.85303342065299
 30
0.0
 10
-11.20603434572713
 20
6.869066225323397
 30
0.0
 10
-11.19887104419876
 20
6.899801317783353
 30
0.0
 10
-11.32973144338166
 20
7.175821136973107
 30
0.0
 10
-11.31498734972794
 20
7.204132936047809
 30
0.0
 10
-11.27102043791498
 20
7.223577822411868
 30
0.0
 10
-11.06656866158203
 20
7.228316627214851
 30
0.0
 10
-11.13380534702583
 20
7.233373250170247
 30
0.0
 10
-11.06656866158203
 20
7.228316627214851
 30
0.0
  0
SPLINE
  5
9B
330
1F
100
AcDbEntity
  8
0
  6
Continuous
 62
     7
100
AcDbSpline
210
0.0
220
0.0
230
1.0
 70
     8
 71
     3
 72
    17
 73
    13
 74
     0
 42
0.00000001
 43
0.00000001
 40
0.0
 40
0.0
 40
0.0
 40
0.0
 40
0.0834611283776134
 40
0.0992104826587567
 40
0.1186124077064018
 40
0.1685406884458412
 40
0.2179301317669433
 40
0.2592576906302052
 40
0.3520603455976302
 40
0.443964431387108
 40
0.6301875380668911
 40
0.9999999999999999
 40
0.9999999999999999
 40
0.9999999999999999
 40
0.9999999999999999
 10
-11.06656342744827
 20
7.228316627214851
 30
0.0
 10
-10.99705211693452
 20
7.262321985841083
 30
0.0
 10
-10.99712623246267
 20
7.27692426251338
 30
0.0
 10
-11.00625648341424
 20
7.292424083458318
 30
0.0
 10
-11.03830474585482
 20
7.325829149201666
 30
0.0
 10
-11.06643561279063
 20
7.361962765142218
 30
0.0
 10
-11.06556629696433
 20
7.400270932352361
 30
0.0
 10
-11.04248136989216
 20
7.483161016151448
 30
0.0
 10
-11.01857826842348
 20
7.564951249372995
 30
0.0
 10
-10.84975761548863
 20
7.601169792434571
 30
0.0
 10
-10.50688998385754
 20
7.604331902543306
 30
0.0
 10
-10.61211870089583
 20
7.600656150509838
 30
0.0
 10
-10.50688998385754
 20
7.604331902543306
 30
0.0
  0
SPLINE
  5
9C
330
1F
100
AcDbEntity
  8
0
  6
Continuous
 62
     7
100
AcDbSpline
210
0.0
220
0.0
230
1.0
 70
     8
 71
     3
 72
    15
 73
    11
 74
     0
 42
0.00000001
 43
0.00000001
 40
0.0
 40
0.0
 40
0.0
 40
0.0
 40
0.067730029078031
 40
0.1297693399565021
 40
0.2502974425137596
 40
0.4977661409999856
 40
0.7480049952867082
 40
0.8736713895949428
 40
0.9367101406849467
 40
1.0
 40
1.0
 40
1.0
 40
1.0
 10
-10.5445608496666
 20
7.600394620691775
 30
0.0
 10
-10.12832341661447
 20
7.824982218359954
 30
0.0
 10
-9.989360399314453
 20
8.23531372794248
 30
0.0
 10
-9.47758137525921
 20
8.903492736099752
 30
0.0
 10
-7.752353899355546
 20
8.804135044709442
 30
0.0
 10
-6.32834026417964
 20
7.791367637540723
 30
0.0
 10
-5.946502558247221
 20
7.001261931741837
 30
0.0
 10
-5.838909716079788
 20
6.574410420054876
 30
0.0
 10
-5.515116109716017
 20
6.273606497355779
 30
0.0
 10
-5.642825687592402
 20
6.362553929267354
 30
0.0
 10
-5.515116109716017
 20
6.273606497355779
 30
0.0
  0
SPLINE
  5
9D
330
1F
100
AcDbEntity
  8
0
  6
Continuous
 62
     7
100
AcDbSpline
210
0.0
220
0.0
230
1.0
 70
     8
 71
     3
 72
     9
 73
     5
 74
     0
 42
0.00000001
 43
0.00000001
 40
0.0
 40
0.0
 40
0.0
 40
0.0
 40
0.5588324661969294
 40
1.0
 40
1.0
 40
1.0
 40
1.0
 10
-5.515113472938538
 20
5.818807400377692
 30
0.0
 10
-5.792905602114782
 20
5.139169136221184
 30
0.0
 10
-6.145952520167299
 20
4.679470202360568
 30
0.0
 10
-6.018436200712962
 20
4.827053431436406
 30
0.0
 10
-6.1459525201673
 20
4.679470202360569
 30
0.0
  0
SPLINE
  5
9E
330
1F
100
AcDbEntity
  8
0
  6
Continuous
 62
     7
100
AcDbSpline
210
0.0
220
0.0
230
1.0
 70
     8
 71
     3
 72
     9
 73
     5
 74
     0
 42
0.00000001
 43
0.00000001
 40
0.0
 40
0.0
 40
0.0
 40
0.0
 40
0.5615263241918074
 40
1.0
 40
1.0
 40
1.0
 40
1.0
 10
-6.815556436777115
 20
4.630325566951308
 30
0.0
 10
-7.528938817811052
 20
4.190555752292378
 30
0.0
 10
-8.141323137160285
 20
3.959871545478878
 30
0.0
 10
-7.933151407419513
 20
4.028529214652923
 30
0.0
 10
-8.141323137160285
 20
3.959871545478878
 30
0.0
  0
SPLINE
  5
9F
330
1F
100
AcDbEntity
  8
0
  6
Continuous
 62
     7
100
AcDbSpline
210
0.0
220
0.0
230
1.0
 70
     8
 71
     3
 72
     9
 73
     5
 74
     0
 42
0.00000001
 43
0.00000001
 40
0.0
 40
0.0
 40
0.0
 40
0.0
 40
0.5596541850286774
 40
1.0
 40
1.0
 40
1.0
 40
1.0
 10
-5.785036832094193
 20
4.556918758571239
 30
0.0
 10
-2.976167057853764
 20
6.277670736306801
 30
0.0
 10
-1.158565204379498
 20
8.125323361909855
 30
0.0
 10
-1.735628985952885
 20
7.473203498183409
 30
0.0
 10
-1.158565204379498
 20
8.125323361909855
 30
0.0
  0
SPLINE
  5
A0
330
1F
100
AcDbEntity
  8
0
  6
Continuous
 62
     7
100
AcDbSpline
210
0.0
220
0.0
230
1.0
 70
     8
 71
     3
 72
    10
 73
     6
 74
     0
 42
0.00000001
 43
0.00000001
 40
0.0
 40
0.0
 40
0.0
 40
0.0
 40
0.5597135762182485
 40
0.782584282074673
 40
1.0
 40
1.0
 40
1.0
 40
1.0
 10
-1.158564351499081
 20
8.125323361909853
 30
0.0
 10
1.837038398939807
 20
9.96320341140915
 30
0.0
 10
2.996194256310591
 20
10.7472408024818
 30
0.0
 10
4.302864206766849
 20
11.14256118952528
 30
0.0
 10
3.851891689532251
 20
11.04295642010491
 30
0.0
 10
4.302864206766849
 20
11.14256118952528
 30
0.0
  0
SPLINE
  5
A1
330
1F
100
AcDbEntity
  8
0
  6
Continuous
 62
     7
100
AcDbSpline
210
0.0
220
0.0
230
1.0
 70
     8
 71
     3
 72
     9
 73
     5
 74
     0
 42
0.00000001
 43
0.00000001
 40
0.0
 40
0.0
 40
0.0
 40
0.0
 40
0.5602113415408426
 40
1.0
 40
1.0
 40
1.0
 40
1.0
 10
4.302863031625748
 20
11.14256118952529
 30
0.0
 10
6.006042143188748
 20
11.33551971602524
 30
0.0
 10
7.349038107936583
 20
11.41948608963162
 30
0.0
 10
6.900938042045173
 20
11.3964459402322
 30
0.0
 10
7.349038107936583
 20
11.41948608963162
 30
0.0
  0
SPLINE
  5
A2
330
1F
100
AcDbEntity
  8
0
  6
Continuous
 62
     7
100
AcDbSpline
210
0.0
220
0.0
230
1.0
 70
     8
 71
     3
 72
    20
 73
    16
 74
     0
 42
0.00000001
 43
0.00000001
 40
0.0
 40
0.0
 40
0.0
 40
0.0
 40
0.0888148938845111
 40
0.179044147876847
 40
0.3543486853772685
 40
0.5234687207706052
 40
0.6287890630359013
 40
0.6797275056904838
 40
0.6983331735097272
 40
0.7125056119271822
 40
0.7688044940727224
 40
0.859345487283071
 40
0.9470635407854844
 40
0.9785735180885193
 40
1.0
 40
1.0
 40
1.0
 40
1.0
 10
7.349036633968353
 20
11.41948608963162
 30
0.0
 10
7.357653854349831
 20
11.32032562010397
 30
0.0
 10
7.3153210736127
 20
11.22849403946983
 30
0.0
 10
7.138321433374936
 20
11.14323773206601
 30
0.0
 10
6.960334443139458
 20
11.07810060104308
 30
0.0
 10
6.846205823285
 20
11.04799834044114
 30
0.0
 10
6.791534291434253
 20
11.03157052492628
 30
0.0
 10
6.773884839154745
 20
11.02046778762403
 30
0.0
 10
6.766651893880134
 20
11.00632733192903
 30
0.0
 10
6.802770002033987
 20
10.9545943433222
 30
0.0
 10
6.888269719290166
 20
10.89995297850307
 30
0.0
 10
6.980450058148315
 20
10.86579668614066
 30
0.0
 10
7.015701402085197
 20
10.86371089484131
 30
0.0
 10
7.036610031111056
 20
10.87551891490884
 30
0.0
 10
7.029862588303756
 20
10.87071379395264
 30
0.0
 10
7.036610031111056
 20
10.87551891490884
 30
0.0
  0
SPLINE
  5
A3
330
1F
100
AcDbEntity
  8
0
  6
Continuous
 62
     7
100
AcDbSpline
210
0.0
220
0.0
230
1.0
 70
     8
 71
     3
 72
    17
 73
    13
 74
     0
 42
0.00000001
 43
0.00000001
 40
0.0
 40
0.0
 40
0.0
 40
0.0
 40
0.0611142241486508
 40
0.1071652520436891
 40
0.1546674642273037
 40
0.2480974458364541
 40
0.6191905900996816
 40
0.8208330163225873
 40
0.8634274027809485
 40
0.9045644776794532
 40
0.9546885743304918
 40
1.0
 40
1.0
 40
1.0
 40
1.0
 10
7.519304752349854
 20
10.85847941862412
 30
0.0
 10
7.565370093890965
 20
10.74387003676922
 30
0.0
 10
7.502101861618303
 20
10.67560427756374
 30
0.0
 10
7.409526364336767
 20
10.65015915089208
 30
0.0
 10
7.220737757912261
 20
10.64596017898628
 30
0.0
 10
6.471245855952718
 20
10.67442101043431
 30
0.0
 10
6.102706231463513
 20
10.84841515743165
 30
0.0
 10
6.019031018833945
 20
10.86865941209884
 30
0.0
 10
5.944849108121382
 20
10.8311101123795
 30
0.0
 10
5.873663928833343
 20
10.75902704717823
 30
0.0
 10
5.789749684105695
 20
10.72234666548405
 30
0.0
 10
5.819779805286173
 20
10.73191956260791
 30
0.0
 10
5.789749684105696
 20
10.72234666548406
 30
0.0
  0
SPLINE
  5
A4
330
1F
100
AcDbEntity
  8
0
  6
Continuous
 62
     7
100
AcDbSpline
210
0.0
220
0.0
230
1.0
 70
     8
 71
     3
 72
    17
 73
    13
 74
     0
 42
0.00000001
 43
0.00000001
 40
0.0
 40
0.0
 40
0.0
 40
0.0
 40
0.020726540609123
 40
0.0242182248541626
 40
0.0242851985386082
 40
0.0243427761561518
 40
0.0245077921373377
 40
0.067790428367292
 40
0.7591690592994457
 40
0.8035173160209784
 40
0.8463530041512719
 40
1.0
 40
1.0
 40
1.0
 40
1.0
 10
5.789749324321747
 20
10.72234666548405
 30
0.0
 10
5.799833520562654
 20
10.72890382666576
 30
0.0
 10
5.801355128728057
 20
10.73024209911166
 30
0.0
 10
5.801355655677472
 20
10.73028096358395
 30
0.0
 10
5.801337296606775
 20
10.73030888329874
 30
0.0
 10
5.801244383868813
 20
10.73033208854039
 30
0.0
 10
5.778900304784691
 20
10.71885577036742
 30
0.0
 10
5.467370999455185
 20
10.46598584320152
 30
0.0
 10
5.464700085054957
 20
10.4403873835856
 30
0.0
 10
5.478195176099148
 20
10.41950958327155
 30
0.0
 10
5.564349536200091
 20
10.39652070910566
 30
0.0
 10
5.53241463403675
 20
10.39773624886812
 30
0.0
 10
5.564349536200092
 20
10.39652070910566
 30
0.0
  0
SPLINE
  5
A5
330
1F
100
AcDbEntity
  8
0
  6
Continuous
 62
     7
100
AcDbSpline
210
0.0
220
0.0
230
1.0
 70
     8
 71
     3
 72
    13
 73
     9
 74
     0
 42
0.00000001
 43
0.00000001
 40
0.0
 40
0.0
 40
0.0
 40
0.0
 40
0.3707202319205519
 40
0.5549253387561793
 40
0.746167063348084
 40
0.8611478361446658
 40
0.9197711241651281
 40
1.0
 40
1.0
 40
1.0
 40
1.0
 10
5.56434690952301
 20
10.39652070910566
 30
0.0
 10
5.94630530255903
 20
10.21997482997115
 30
0.0
 10
6.118411274614703
 20
10.10125342705006
 30
0.0
 10
6.209147250905198
 20
9.904058482039964
 30
0.0
 10
6.173631308412888
 20
9.778475128004816
 30
0.0
 10
6.115105516987785
 20
9.746815267592401
 30
0.0
 10
6.024076570542213
 20
9.749332165614323
 30
0.0
 10
6.054709387313419
 20
9.74469601314568
 30
0.0
 10
6.024076570542213
 20
9.749332165614323
 30
0.0
  0
SPLINE
  5
A6
330
1F
100
AcDbEntity
  8
0
  6
Continuous
 62
     7
100
AcDbSpline
210
0.0
220
0.0
230
1.0
 70
     8
 71
     3
 72
    10
 73
     6
 74
     0
 42
0.00000001
 43
0.00000001
 40
0.0
 40
0.0
 40
0.0
 40
0.0
 40
0.3114876600469902
 40
0.5580490897614317
 40
1.0
 40
1.0
 40
1.0
 40
1.0
 10
6.0240738093853
 20
9.749332165614323
 30
0.0
 10
5.624551957223273
 20
9.950582732182836
 30
0.0
 10
5.298257551065629
 20
10.08813470239321
 30
0.0
 10
4.673907367741323
 20
10.20236414605826
 30
0.0
 10
4.885978626565303
 20
10.17806793761477
 30
0.0
 10
4.673907367741323
 20
10.20236414605826
 30
0.0
  0
SPLINE
  5
A7
330
1F
100
AcDbEntity
  8
0
  6
Continuous
 62
     7
100
AcDbSpline
210
0.0
220
0.0
230
1.0
 70
     8
 71
     3
 72
     9
 73
     5
 74
     0
 42
0.00000001
 43
0.00000001
 40
0.0
 40
0.0
 40
0.0
 40
0.0
 40
0.5612287852502545
 40
0.9999999999999999
 40
0.9999999999999999
 40
0.9999999999999999
 40
0.9999999999999999
 10
4.673905670642853
 20
10.20236414605826
 30
0.0
 10
4.250309216587928
 20
10.28029063734329
 30
0.0
 10
3.913773399108591
 20
10.29163153136741
 30
0.0
 10
4.026344426165868
 20
10.29147712101357
 30
0.0
 10
3.913773399108591
 20
10.29163153136741
 30
0.0
  0
SPLINE
  5
A8
330
1F
100
AcDbEntity
  8
0
  6
Continuous
 62
     7
100
AcDbSpline
210
0.0
220
0.0
230
1.0
 70
     8
 71
     3
 72
     9
 73
     5
 74
     0
 42
0.00000001
 43
0.00000001
 40
0.0
 40
0.0
 40
0.0
 40
0.0
 40
0.5594556371920146
 40
1.0
 40
1.0
 40
1.0
 40
1.0
 10
3.913771361112595
 20
10.29163153136741
 30
0.0
 10
2.065578767462987
 20
8.757638781339178
 30
0.0
 10
0.6473826291640813
 20
7.506266665687461
 30
0.0
 10
1.117385760397944
 20
7.926579270668777
 30
0.0
 10
0.6473826291640814
 20
7.506266665687462
 30
0.0
  0
SPLINE
  5
A9
330
1F
100
AcDbEntity
  8
0
  6
Continuous
 62
     7
100
AcDbSpline
210
0.0
220
0.0
230
1.0
 70
     8
 71
     3
 72
    10
 73
     6
 74
     0
 42
0.00000001
 43
0.00000001
 40
0.0
 40
0.0
 40
0.0
 40
0.0
 40
0.3127745923828693
 40
0.5597817400887437
 40
1.0
 40
1.0
 40
1.0
 40
1.0
 10
0.6473823450505733
 20
7.506266665687461
 30
0.0
 10
-0.8249017502330411
 20
6.497221074321645
 30
0.0
 10
-1.807361047229465
 20
5.486447471914369
 30
0.0
 10
-3.582831185109633
 20
3.709202868226358
 30
0.0
 10
-2.980402574363828
 20
4.289581146844195
 30
0.0
 10
-3.582831185109633
 20
3.709202868226358
 30
0.0
  0
SPLINE
  5
AA
330
1F
100
AcDbEntity
  8
0
  6
Continuous
 62
     7
100
AcDbSpline
210
0.0
220
0.0
230
1.0
 70
     8
 71
     3
 72
     9
 73
     5
 74
     0
 42
0.00000001
 43
0.00000001
 40
0.0
 40
0.0
 40
0.0
 40
0.0
 40
0.5596108033702459
 40
1.0
 40
1.0
 40
1.0
 40
1.0
 10
-3.582829609513283
 20
3.709202868226359
 30
0.0
 10
-4.856036838459544
 20
2.670409673180347
 30
0.0
 10
-5.785037570986611
 20
1.770876756174761
 30
0.0
 10
-5.480725616788773
 20
2.076743249183059
 30
0.0
 10
-5.785037570986611
 20
1.770876756174761
 30
0.0
  0
LWPOLYLINE
  5
AB
330
1F
100
AcDbEntity
  8
0
  6
Continuous
 62
     7
100
AcDbPolyline
 90
        2
 70
   128
 43
0.0
 10
0.0
 20
0.0
 10
0.0
 20
0.0
  0
SPLINE
  5
AC
330
1F
100
AcDbEntity
  8
0
  6
Continuous
 62
     7
100
AcDbSpline
210
0.0
220
0.0
230
1.0
 70
     8
 71
     3
 72
     9
 73
     5
 74
     0
 42
0.00000001
 43
0.00000001
 40
0.0
 40
0.0
 40
0.0
 40
0.0
 40
0.5714852330490388
 40
1.0
 40
1.0
 40
1.0
 40
1.0
 10
-0.4047725815325975
 20
-0.9088573371299541
 30
0.0
 10
1.402049316997684
 20
0.3950811572684669
 30
0.0
 10
2.983111414500217
 20
0.9351597782910268
 30
0.0
 10
2.43993148250033
 20
0.7863900814928536
 30
0.0
 10
2.983111414500218
 20
0.9351597782910268
 30
0.0
  0
SPLINE
  5
AD
330
1F
100
AcDbEntity
  8
0
  6
Continuous
 62
     7
100
AcDbSpline
210
0.0
220
0.0
230
1.0
 70
     8
 71
     3
 72
    14
 73
    10
 74
     0
 42
0.00000001
 43
0.00000001
 40
0.0
 40
0.0
 40
0.0
 40
0.0
 40
0.2118834800520179
 40
0.3120199707439759
 40
0.5043074818812857
 40
0.6629737660784853
 40
0.7227684365412277
 40
0.7996113796031764
 40
1.0
 40
1.0
 40
1.0
 40
1.0
 10
4.223629832267761
 20
1.272527669792309
 30
0.0
 10
4.233024104324711
 20
1.086003674126567
 30
0.0
 10
4.281849611592078
 20
1.012474918182353
 30
0.0
 10
4.445731377946712
 20
1.055706045337705
 30
0.0
 10
4.575335314434033
 20
1.108258261623617
 30
0.0
 10
4.626727621551374
 20
1.09656949434519
 30
0.0
 10
4.661857397995776
 20
1.038660283227189
 30
0.0
 10
4.673907367741323
 20
0.8624432949779388
 30
0.0
 10
4.676851381130316
 20
0.9207859444511435
 30
0.0
 10
4.673907367741323
 20
0.8624432949779388
 30
0.0
  0
SPLINE
  5
AE
330
1F
100
AcDbEntity
  8
0
  6
Continuous
 62
     7
100
AcDbSpline
210
0.0
220
0.0
230
1.0
 70
     8
 71
     3
 72
     9
 73
     5
 74
     0
 42
0.00000001
 43
0.00000001
 40
0.0
 40
0.0
 40
0.0
 40
0.0
 40
0.5730435545037749
 40
1.0
 40
1.0
 40
1.0
 40
1.0
 10
4.673905670642853
 20
0.8624432949779388
 30
0.0
 10
4.910256020383969
 20
0.4664879971623499
 30
0.0
 10
4.861720052857611
 20
0.1263593506590169
 30
0.0
 10
4.89388346434771
 20
0.2429459230925857
 30
0.0
 10
4.861720052857612
 20
0.126359350659017
 30
0.0
  0
SPLINE
  5
AF
330
1F
100
AcDbEntity
  8
0
  6
Continuous
 62
     7
100
AcDbSpline
210
0.0
220
0.0
230
1.0
 70
     8
 71
     3
 72
     9
 73
     5
 74
     0
 42
0.00000001
 43
0.00000001
 40
0.0
 40
0.0
 40
0.0
 40
0.0
 40
0.5590376698481251
 40
1.0
 40
1.0
 40
1.0
 40
1.0
 10
6.619308143854141
 20
0.4151761262128437
 30
0.0
 10
7.869784450285709
 20
0.9658453724575974
 30
0.0
 10
8.938678404204687
 20
1.103843724041667
 30
0.0
 10
8.576314764411748
 20
1.079625098102033
 30
0.0
 10
8.938678404204687
 20
1.103843724041667
 30
0.0
  0
SPLINE
  5
B0
330
1F
100
AcDbEntity
  8
0
  6
Continuous
 62
     7
100
AcDbSpline
210
0.0
220
0.0
230
1.0
 70
     8
 71
     3
 72
    10
 73
     6
 74
     0
 42
0.00000001
 43
0.00000001
 40
0.0
 40
0.0
 40
0.0
 40
0.0
 40
0.560820679787405
 40
0.782805356661358
 40
1.0
 40
1.0
 40
1.0
 40
1.0
 10
8.938677608966827
 20
1.103843724041667
 30
0.0
 10
12.73428692888319
 20
1.725047026514969
 30
0.0
 10
14.2103654356106
 20
2.097612040044546
 30
0.0
 10
15.48504587441838
 20
2.868236113711743
 30
0.0
 10
15.07433463022944
 20
2.578147347923304
 30
0.0
 10
15.48504587441838
 20
2.868236113711743
 30
0.0
  0
SPLINE
  5
B1
330
1F
100
AcDbEntity
  8
0
  6
Continuous
 62
     7
100
AcDbSpline
210
0.0
220
0.0
230
1.0
 70
     8
 71
     3
 72
    13
 73
     9
 74
     0
 42
0.00000001
 43
0.00000001
 40
0.0
 40
0.0
 40
0.0
 40
0.0
 40
0.4183558972820088
 40
0.5990167267971706
 40
0.7529437954192683
 40
0.8107462959862576
 40
0.8727004481398855
 40
1.0
 40
1.0
 40
1.0
 40
1.0
 10
15.48504084348679
 20
2.868236113711743
 30
0.0
 10
16.94792125006197
 20
4.301222246120035
 30
0.0
 10
17.68638111465314
 20
4.787722107076106
 30
0.0
 10
18.36349530079905
 20
5.118186646732641
 30
0.0
 10
18.64635332873049
 20
5.111566716966618
 30
0.0
 10
18.88529580757964
 20
4.924827707552557
 30
0.0
 10
19.17077649089969
 20
4.370957584646475
 30
0.0
 10
19.0952934439012
 20
4.565211845936175
 30
0.0
 10
19.17077649089969
 20
4.370957584646475
 30
0.0
  0
SPLINE
  5
B2
330
1F
100
AcDbEntity
  8
0
  6
Continuous
 62
     7
100
AcDbSpline
210
0.0
220
0.0
230
1.0
 70
     8
 71
     3
 72
    10
 73
     6
 74
     0
 42
0.00000001
 43
0.00000001
 40
0.0
 40
0.0
 40
0.0
 40
0.0
 40
0.280734401563298
 40
0.5589073463361462
 40
1.0
 40
1.0
 40
1.0
 40
1.0
 10
18.41430366039276
 20
3.095001749443969
 30
0.0
 10
17.14843023872752
 20
2.182321094619095
 30
0.0
 10
15.81049001218642
 20
1.407015994853132
 30
0.0
 10
13.47454508374564
 20
0.6615716923077595
 30
0.0
 10
14.27267222733228
 20
0.8635574245802622
 30
0.0
 10
13.47454508374564
 20
0.6615716923077595
 30
0.0
  0
SPLINE
  5
B3
330
1F
100
AcDbEntity
  8
0
  6
Continuous
 62
     7
100
AcDbSpline
210
0.0
220
0.0
230
1.0
 70
     8
 71
     3
 72
    10
 73
     6
 74
     0
 42
0.00000001
 43
0.00000001
 40
0.0
 40
0.0
 40
0.0
 40
0.0
 40
0.5614670362353177
 40
0.8091966485532055
 40
1.0
 40
1.0
 40
1.0
 40
1.0
 10
13.47453892230988
 20
0.6615716923077595
 30
0.0
 10
10.0399039745334
 20
-1.275582420713855
 30
0.0
 10
8.363093079348529
 20
-1.739631959724587
 30
0.0
 10
7.136018954008628
 20
-2.27813855298085
 30
0.0
 10
7.538719052894986
 20
-2.081420097412737
 30
0.0
 10
7.136018954008628
 20
-2.27813855298085
 30
0.0
  0
SPLINE
  5
B4
330
1F
100
AcDbEntity
  8
0
  6
Continuous
 62
     7
100
AcDbSpline
210
0.0
220
0.0
230
1.0
 70
     8
 71
     3
 72
     9
 73
     5
 74
     0
 42
0.00000001
 43
0.00000001
 40
0.0
 40
0.0
 40
0.0
 40
0.0
 40
0.5592833527382765
 40
1.0
 40
1.0
 40
1.0
 40
1.0
 10
7.136017084121704
 20
-2.27813855298085
 30
0.0
 10
4.618964153309969
 20
-3.331232641275378
 30
0.0
 10
2.64841544459308
 20
-4.191245964734717
 30
0.0
 10
3.304317829964298
 20
-3.902358594914057
 30
0.0
 10
2.64841544459308
 20
-4.191245964734717
 30
0.0
  0
SPLINE
  5
B5
330
1F
100
AcDbEntity
  8
0
  6
Continuous
 62
     7
100
AcDbSpline
210
0.0
220
0.0
230
1.0
 70
     8
 71
     3
 72
    12
 73
     8
 74
     0
 42
0.00000001
 43
0.00000001
 40
0.0
 40
0.0
 40
0.0
 40
0.0
 40
0.3692409178779724
 40
0.7473498648178571
 40
0.8684332715500751
 40
0.9213219815107617
 40
1.0
 40
1.0
 40
1.0
 40
1.0
 10
2.648415043950081
 20
-4.191245964734717
 30
0.0
 10
2.831971406458097
 20
-4.927298570588254
 30
0.0
 10
2.632453674317496
 20
-5.678053421207753
 30
0.0
 10
2.56574167185186
 20
-5.917703695944043
 30
0.0
 10
2.474315402239496
 20
-5.976422308914356
 30
0.0
 10
2.313114663102259
 20
-5.964489997377538
 30
0.0
 10
2.36788025237568
 20
-5.977568667495114
 30
0.0
 10
2.313114663102259
 20
-5.964489997377538
 30
0.0
  0
SPLINE
  5
B6
330
1F
100
AcDbEntity
  8
0
  6
Continuous
 62
     7
100
AcDbSpline
210
0.0
220
0.0
230
1.0
 70
     8
 71
     3
 72
    10
 73
     6
 74
     0
 42
0.00000001
 43
0.00000001
 40
0.0
 40
0.0
 40
0.0
 40
0.0
 40
0.2539250870936872
 40
0.4606030135577372
 40
1.0
 40
1.0
 40
1.0
 40
1.0
 10
2.313112840056419
 20
-5.964489997377538
 30
0.0
 10
2.207105942728114
 20
-6.137465058256305
 30
0.0
 10
2.061371398832787
 20
-6.215104920652956
 30
0.0
 10
1.650724840478586
 20
-6.084379049999907
 30
0.0
 10
1.787046290637315
 20
-6.164812164046065
 30
0.0
 10
1.650724840478586
 20
-6.084379049999907
 30
0.0
  0
SPLINE
  5
B7
330
1F
100
AcDbEntity
  8
0
  6
Continuous
 62
     7
100
AcDbSpline
210
0.0
220
0.0
230
1.0
 70
     8
 71
     3
 72
     9
 73
     5
 74
     0
 42
0.00000001
 43
0.00000001
 40
0.0
 40
0.0
 40
0.0
 40
0.0
 40
0.5638117850886945
 40
1.0
 40
1.0
 40
1.0
 40
1.0
 10
1.650724560022354
 20
-6.084379049999907
 30
0.0
 10
1.420815062241921
 20
-6.38023781852375
 30
0.0
 10
1.13597945170461
 20
-6.434048053638948
 30
0.0
 10
1.238701024073628
 20
-6.428839164157224
 30
0.0
 10
1.13597945170461
 20
-6.434048053638948
 30
0.0
  0
SPLINE
  5
B8
330
1F
100
AcDbEntity
  8
0
  6
Continuous
 62
     7
100
AcDbSpline
210
0.0
220
0.0
230
1.0
 70
     8
 71
     3
 72
    10
 73
     6
 74
     0
 42
0.00000001
 43
0.00000001
 40
0.0
 40
0.0
 40
0.0
 40
0.0
 40
0.5594384422975383
 40
0.8072074602934427
 40
1.0
 40
1.0
 40
1.0
 40
1.0
 10
-1.862918026745319
 20
-9.76546488938402
 30
0.0
 10
-1.997874754188968
 20
-14.1000921518466
 30
0.0
 10
-2.182945035873146
 20
-16.01184311310558
 30
0.0
 10
-1.93110672382724
 20
-17.48498614564414
 30
0.0
 10
-2.04636616946589
 20
-16.994964515416
 30
0.0
 10
-1.93110672382724
 20
-17.48498614564414
 30
0.0
  0
SPLINE
  5
B9
330
1F
100
AcDbEntity
  8
0
  6
Continuous
 62
     7
100
AcDbSpline
210
0.0
220
0.0
230
1.0
 70
     8
 71
     3
 72
    18
 73
    14
 74
     0
 42
0.00000001
 43
0.00000001
 40
0.0
 40
0.0
 40
0.0
 40
0.0
 40
0.5008818106581283
 40
0.5972301696553145
 40
0.6881525501066358
 40
0.7816233307746232
 40
0.8716307618035991
 40
0.9418507737648272
 40
0.9750061233010311
 40
0.9890660016184083
 40
0.9955459435030544
 40
0.9981159248951026
 40
1.0
 40
1.0
 40
1.0
 40
1.0
 10
-1.862918026745319
 20
-20.1507993014686
 30
0.0
 10
-3.143527259073498
 20
-24.08022516050008
 30
0.0
 10
-3.420798821024168
 20
-24.82528704060465
 30
0.0
 10
-3.280516717974021
 20
-25.56226646477131
 30
0.0
 10
-2.781286289032433
 20
-26.15012572956526
 30
0.0
 10
-2.943158413986484
 20
-26.87493253769277
 30
0.0
 10
-3.362501244988633
 20
-27.27474373415861
 30
0.0
 10
-3.547823250191344
 20
-27.47597914326354
 30
0.0
 10
-3.599751643082266
 20
-27.57971782547231
 30
0.0
 10
-3.611721467714735
 20
-27.63182753794425
 30
0.0
 10
-3.618406054253783
 20
-27.65195160944939
 30
0.0
 10
-3.631484678089468
 20
-27.66035515169938
 30
0.0
 10
-3.626543615690571
 20
-27.65801588029709
 30
0.0
 10
-3.631484678089468
 20
-27.66035515169938
 30
0.0
  0
SPLINE
  5
BA
330
1F
100
AcDbEntity
  8
0
  6
Continuous
 62
     7
100
AcDbSpline
210
0.0
220
0.0
230
1.0
 70
     8
 71
     3
 72
     9
 73
     5
 74
     0
 42
0.00000001
 43
0.00000001
 40
0.0
 40
0.0
 40
0.0
 40
0.0
 40
0.5602465219096031
 40
1.0
 40
1.0
 40
1.0
 40
1.0
 10
-3.631483763456345
 20
-27.66035515169938
 30
0.0
 10
-3.600430538487257
 20
-29.03030244604488
 30
0.0
 10
-3.631484678089464
 20
-30.10544099122497
 30
0.0
 10
-3.61707080415605
 20
-29.74707409480427
 30
0.0
 10
-3.631484678089464
 20
-30.10544099122497
 30
0.0
  0
SPLINE
  5
BB
330
1F
100
AcDbEntity
  8
0
  6
Continuous
 62
     7
100
AcDbSpline
210
0.0
220
0.0
230
1.0
 70
     8
 71
     3
 72
    14
 73
    10
 74
     0
 42
0.00000001
 43
0.00000001
 40
0.0
 40
0.0
 40
0.0
 40
0.0
 40
0.0334412104438443
 40
0.0650857361323176
 40
0.1134865954984079
 40
0.1600918332245106
 40
0.2536467730965953
 40
0.6248683118176174
 40
1.0
 40
1.0
 40
1.0
 40
1.0
 10
-3.631483763456345
 20
-30.10544099122497
 30
0.0
 10
-3.737623771761502
 20
-30.34789061526631
 30
0.0
 10
-3.965297374844369
 20
-30.45223431840116
 30
0.0
 10
-4.340205140599957
 20
-30.37362400723315
 30
0.0
 10
-4.560641604574815
 20
-30.07789157256449
 30
0.0
 10
-4.902904566880272
 20
-29.42132065773039
 30
0.0
 10
-5.355707043351489
 20
-26.518452094908
 30
0.0
 10
-4.690203050079921
 20
-23.62508444449195
 30
0.0
 10
-4.983087011547204
 20
-24.57289840411984
 30
0.0
 10
-4.690203050079921
 20
-23.62508444449195
 30
0.0
  0
SPLINE
  5
BC
330
1F
100
AcDbEntity
  8
0
  6
Continuous
 62
     7
100
AcDbSpline
210
0.0
220
0.0
230
1.0
 70
     8
 71
     3
 72
     9
 73
     5
 74
     0
 42
0.00000001
 43
0.00000001
 40
0.0
 40
0.0
 40
0.0
 40
0.0
 40
0.5609330929770733
 40
1.0
 40
1.0
 40
1.0
 40
1.0
 10
-4.690200090408325
 20
-23.62508444449195
 30
0.0
 10
-4.237456074957851
 20
-20.62672613470114
 30
0.0
 10
-4.105040761341578
 20
-18.25687157168012
 30
0.0
 10
-4.132936119310168
 20
-19.04849946128193
 30
0.0
 10
-4.105040761341578
 20
-18.25687157168012
 30
0.0
  0
SPLINE
  5
BD
330
1F
100
AcDbEntity
  8
0
  6
Continuous
 62
     7
100
AcDbSpline
210
0.0
220
0.0
230
1.0
 70
     8
 71
     3
 72
     9
 73
     5
 74
     0
 42
0.00000001
 43
0.00000001
 40
0.0
 40
0.0
 40
0.0
 40
0.0
 40
0.5598486880926775
 40
1.0
 40
1.0
 40
1.0
 40
1.0
 10
-4.105038940906525
 20
-18.25687157168012
 30
0.0
 10
-4.674443816465285
 20
-15.16881459666082
 30
0.0
 10
-5.400889331543684
 20
-12.80936668130183
 30
0.0
 10
-5.138289844441825
 20
-13.59083357883291
 30
0.0
 10
-5.400889331543684
 20
-12.80936668130183
 30
0.0
  0
SPLINE
  5
BE
330
1F
100
AcDbEntity
  8
0
  6
Continuous
 62
     7
100
AcDbSpline
210
0.0
220
0.0
230
1.0
 70
     8
 71
     3
 72
     9
 73
     5
 74
     0
 42
0.00000001
 43
0.00000001
 40
0.0
 40
0.0
 40
0.0
 40
0.0
 40
0.5664774857680899
 40
1.0
 40
1.0
 40
1.0
 40
1.0
 10
-18.80268752574921
 20
13.52391697677506
 30
0.0
 10
-19.0734178382801
 20
13.61543546676041
 30
0.0
 10
-19.22710497118106
 20
13.77104009961176
 30
0.0
 10
-19.1797416097278
 20
13.71298942628389
 30
0.0
 10
-19.22710497118106
 20
13.77104009961176
 30
0.0
  0
POINT
  5
BF
330
1F
100
AcDbEntity
  8
0
  6
Continuous
 62
     7
100
AcDbPoint
 10
-1.6372893643
 20
-8.1517207908
 30
0.0
  0
ENDSEC
  0
SECTION
  2
OBJECTS
  0
DICTIONARY
  5
C
330
0
100
AcDbDictionary
281
     1
  3
ACAD_GROUP
350
D
  3
ACAD_LAYOUT
350
1A
  3
ACAD_MLINESTYLE
350
17
  3
ACAD_PLOTSETTINGS
350
19
  3
ACAD_PLOTSTYLENAME
350
E
  3
ACAD_SCALELIST
350
47
  3
DWGPROPS
350
C0
  0
DICTIONARY
  5
D
102
{ACAD_REACTORS
330
C
102
}
330
C
100
AcDbDictionary
281
     1
  0
DICTIONARY
  5
1A
102
{ACAD_REACTORS
330
C
102
}
330
C
100
AcDbDictionary
281
     1
  3
Layout1
350
1E
  3
Layout2
350
26
  3
Model
350
22
  0
DICTIONARY
  5
17
102
{ACAD_REACTORS
330
C
102
}
330
C
100
AcDbDictionary
281
     1
  3
Standard
350
18
  0
DICTIONARY
  5
19
102
{ACAD_REACTORS
330
C
102
}
330
C
100
AcDbDictionary
281
     1
  0
ACDBDICTIONARYWDFLT
  5
E
102
{ACAD_REACTORS
330
C
102
}
330
C
100
AcDbDictionary
281
     1
  3
Normal
350
F
100
AcDbDictionaryWithDefault
340
F
  0
DICTIONARY
  5
47
102
{ACAD_REACTORS
330
C
102
}
330
C
100
AcDbDictionary
281
     1
  3
A0
350
48
  3
A1
350
49
  3
A2
350
4A
  3
A3
350
4B
  3
A4
350
4C
  3
A5
350
4D
  3
A6
350
4E
  3
A7
350
4F
  3
A8
350
50
  3
A9
350
51
  3
B0
350
52
  3
B1
350
53
  3
B2
350
54
  3
B3
350
55
  3
B4
350
56
  3
B5
350
57
  3
B6
350
58
  0
XRECORD
  5
C0
102
{ACAD_REACTORS
330
C
102
}
330
C
100
AcDbXrecord
280
     1
  1
DWGPROPS COOKIE
  2

  3

  4

  6

  7

  8
201758
  9

300
=
301
=
302
=
303
=
304
=
305
=
306
=
307
=
308
=
309
=
 40
0.0
 41
2460647.793567894
 42
2460647.793606528
  1

 90
        0
  0
LAYOUT
  5
1E
102
{ACAD_REACTORS
330
1A
102
}
330
1A
100
AcDbPlotSettings
  1

  2
none_device
  4

  6

 40
0.0
 41
0.0
 42
0.0
 43
0.0
 44
0.0
 45
0.0
 46
0.0
 47
0.0
 48
0.0
 49
0.0
140
0.0
141
0.0
142
1.0
143
1.0
 70
   688
 72
     1
 73
     0
 74
     5
  7

 75
    16
147
1.0
148
0.0
149
0.0
100
AcDbLayout
  1
Layout1
 70
     1
 71
     1
 10
0.0
 20
0.0
 11
420.0
 21
297.0
 12
0.0
 22
0.0
 32
0.0
 14
1.0000000000E+20
 24
1.0000000000E+20
 34
1.0000000000E+20
 15
-1.0000000000E+20
 25
-1.0000000000E+20
 35
-1.0000000000E+20
146
0.0
 13
0.0
 23
0.0
 33
0.0
 16
1.0
 26
0.0
 36
0.0
 17
0.0
 27
1.0
 37
0.0
 76
     0
330
1B
  0
LAYOUT
  5
26
102
{ACAD_REACTORS
330
1A
102
}
330
1A
100
AcDbPlotSettings
  1

  2
none_device
  4

  6

 40
0.0
 41
0.0
 42
0.0
 43
0.0
 44
0.0
 45
0.0
 46
0.0
 47
0.0
 48
0.0
 49
0.0
140
0.0
141
0.0
142
1.0
143
1.0
 70
   688
 72
     1
 73
     0
 74
     5
  7

 75
    16
147
1.0
148
0.0
149
0.0
100
AcDbLayout
  1
Layout2
 70
     1
 71
     2
 10
0.0
 20
0.0
 11
0.0
 21
0.0
 12
0.0
 22
0.0
 32
0.0
 14
0.0
 24
0.0
 34
0.0
 15
0.0
 25
0.0
 35
0.0
146
0.0
 13
0.0
 23
0.0
 33
0.0
 16
1.0
 26
0.0
 36
0.0
 17
0.0
 27
1.0
 37
0.0
 76
     0
330
23
  0
LAYOUT
  5
22
102
{ACAD_REACTORS
330
1A
102
}
330
1A
100
AcDbPlotSettings
  1

  2
none_device
  4
ANSI_A_(11.00_x_8.50_Inches)
  6

 40
6.35
 41
19.05
 42
6.35000508
 43
19.05000254
 44
279.4
 45
215.9
 46
133.4896426218
 47
128.3836239018
 48
0.0
 49
0.0
140
0.0
141
0.0
142
0.1894465573
143
1.0
 70
  1696
 72
     0
 73
     0
 74
     0
  7

 75
     0
147
0.0179189148
148
-1300.4909072572
149
0.0
100
AcDbLayout
  1
Model
 70
     1
 71
     0
 10
0.0
 20
0.0
 11
420.0
 21
297.0
 12
0.0
 22
0.0
 32
0.0
 14
-19.2288175669
 24
-30.4147698055
 34
0.0
 15
19.1707764909
 25
14.0040896244
 35
0.0
146
0.0
 13
0.0
 23
0.0
 33
0.0
 16
1.0
 26
0.0
 36
0.0
 17
0.0
 27
1.0
 37
0.0
 76
     0
330
1F
331
29
  0
MLINESTYLE
  5
18
102
{ACAD_REACTORS
330
17
102
}
330
17
100
AcDbMlineStyle
  2
Standard
 70
     0
  3

 62
   256
 51
90.0
 52
90.0
 71
     2
 49
0.5
 62
   256
  6
BYLAYER
 49
-0.5
 62
   256
  6
BYLAYER
  0
ACDBPLACEHOLDER
  5
F
102
{ACAD_REACTORS
330
E
102
}
330
E
  0
SCALE
  5
48
102
{ACAD_REACTORS
330
47
102
}
330
47
100
AcDbScale
 70
     0
300
1:1
140
1.0
141
1.0
290
     1
  0
SCALE
  5
49
102
{ACAD_REACTORS
330
47
102
}
330
47
100
AcDbScale
 70
     0
300
1:2
140
1.0
141
2.0
290
     0
  0
SCALE
  5
4A
102
{ACAD_REACTORS
330
47
102
}
330
47
100
AcDbScale
 70
     0
300
1:4
140
1.0
141
4.0
290
     0
  0
SCALE
  5
4B
102
{ACAD_REACTORS
330
47
102
}
330
47
100
AcDbScale
 70
     0
300
1:5
140
1.0
141
5.0
290
     0
  0
SCALE
  5
4C
102
{ACAD_REACTORS
330
47
102
}
330
47
100
AcDbScale
 70
     0
300
1:8
140
1.0
141
8.0
290
     0
  0
SCALE
  5
4D
102
{ACAD_REACTORS
330
47
102
}
330
47
100
AcDbScale
 70
     0
300
1:10
140
1.0
141
10.0
290
     0
  0
SCALE
  5
4E
102
{ACAD_REACTORS
330
47
102
}
330
47
100
AcDbScale
 70
     0
300
1:16
140
1.0
141
16.0
290
     0
  0
SCALE
  5
4F
102
{ACAD_REACTORS
330
47
102
}
330
47
100
AcDbScale
 70
     0
300
1:20
140
1.0
141
20.0
290
     0
  0
SCALE
  5
50
102
{ACAD_REACTORS
330
47
102
}
330
47
100
AcDbScale
 70
     0
300
1:30
140
1.0
141
30.0
290
     0
  0
SCALE
  5
51
102
{ACAD_REACTORS
330
47
102
}
330
47
100
AcDbScale
 70
     0
300
1:40
140
1.0
141
40.0
290
     0
  0
SCALE
  5
52
102
{ACAD_REACTORS
330
47
102
}
330
47
100
AcDbScale
 70
     0
300
1:50
140
1.0
141
50.0
290
     0
  0
SCALE
  5
53
102
{ACAD_REACTORS
330
47
102
}
330
47
100
AcDbScale
 70
     0
300
1:100
140
1.0
141
100.0
290
     0
  0
SCALE
  5
54
102
{ACAD_REACTORS
330
47
102
}
330
47
100
AcDbScale
 70
     0
300
2:1
140
2.0
141
1.0
290
     0
  0
SCALE
  5
55
102
{ACAD_REACTORS
330
47
102
}
330
47
100
AcDbScale
 70
     0
300
4:1
140
4.0
141
1.0
290
     0
  0
SCALE
  5
56
102
{ACAD_REACTORS
330
47
102
}
330
47
100
AcDbScale
 70
     0
300
8:1
140
8.0
141
1.0
290
     0
  0
SCALE
  5
57
102
{ACAD_REACTORS
330
47
102
}
330
47
100
AcDbScale
 70
     0
300
10:1
140
10.0
141
1.0
290
     0
  0
SCALE
  5
58
102
{ACAD_REACTORS
330
47
102
}
330
47
100
AcDbScale
 70
     0
300
100:1
140
100.0
141
1.0
290
     0
  0
ENDSEC
  0
EOF
