  0
SECTION
  2
HEADER
  9
$ACADVER
  1
AC1015
  9
$ACADMAINTVER
 70
     6
  9
$DWGCODEPAGE
  3
ANSI_1252
  9
$INSBASE
 10
0.0
 20
0.0
 30
0.0
  9
$EXTMIN
 10
1064.0517078249
 20
-10037.549329058
 30
0.0
  9
$EXTMAX
 10
1102.561376185
 20
-9960.7475684107
 30
0.0
  9
$LIMMIN
 10
0.0
 20
0.0
  9
$LIMMAX
 10
420.0
 20
297.0
  9
$ORTHOMODE
 70
     0
  9
$REGENMODE
 70
     1
  9
$FILLMODE
 70
     1
  9
$QTEXTMODE
 70
     0
  9
$MIRRTEXT
 70
     1
  9
$LTSCALE
 40
1.0
  9
$ATTMODE
 70
     1
  9
$TEXTSIZE
 40
3.5
  9
$TRACEWID
 40
1.0
  9
$TEXTSTYLE
  7
Standard
  9
$CLAYER
  8
0
  9
$CELTYPE
  6
ByLayer
  9
$CECOLOR
 62
   256
  9
$CELTSCALE
 40
1.0
  9
$DISPSILH
 70
     0
  9
$DIMSCALE
 40
1.0
  9
$DIMASZ
 40
3.302
  9
$DIMEXO
 40
0.0
  9
$DIMDLI
 40
3.75
  9
$DIMRND
 40
0.0
  9
$DIMDLE
 40
0.0
  9
$DIMEXE
 40
1.0
  9
$DIMTP
 40
0.0
  9
$DIMTM
 40
0.0
  9
$DIMTXT
 40
3.5
  9
$DIMCEN
 40
2.5
  9
$DIMTSZ
 40
0.0
  9
$DIMTOL
 70
     0
  9
$DIMLIM
 70
     0
  9
$DIMTIH
 70
     1
  9
$DIMTOH
 70
     1
  9
$DIMSE1
 70
     0
  9
$DIMSE2
 70
     0
  9
$DIMTAD
 70
     1
  9
$DIMZIN
 70
     1
  9
$DIMBLK
  1

  9
$DIMASO
 70
     1
  9
$DIMSHO
 70
     1
  9
$DIMPOST
  1

  9
$DIMAPOST
  1

  9
$DIMALT
 70
     0
  9
$DIMALTD
 70
     3
  9
$DIMALTF
 40
0.0393700787
  9
$DIMLFAC
 40
1.0
  9
$DIMTOFL
 70
     1
  9
$DIMTVP
 40
0.0
  9
$DIMTIX
 70
     0
  9
$DIMSOXD
 70
     0
  9
$DIMSAH
 70
     0
  9
$DIMBLK1
  1

  9
$DIMBLK2
  1

  9
$DIMSTYLE
  2
ISO-25
  9
$DIMCLRD
 70
     0
  9
$DIMCLRE
 70
     0
  9
$DIMCLRT
 70
     0
  9
$DIMTFAC
 40
1.0
  9
$DIMGAP
 40
1.524
  9
$DIMJUST
 70
     0
  9
$DIMSD1
 70
     0
  9
$DIMSD2
 70
     0
  9
$DIMTOLJ
 70
     0
  9
$DIMTZIN
 70
     1
  9
$DIMALTZ
 70
     0
  9
$DIMALTTZ
 70
     0
  9
$DIMUPT
 70
     0
  9
$DIMDEC
 70
     2
  9
$DIMTDEC
 70
     2
  9
$DIMALTU
 70
     2
  9
$DIMALTTD
 70
     3
  9
$DIMTXSTY
  7
Standard
  9
$DIMAUNIT
 70
     0
  9
$DIMADEC
 70
     2
  9
$DIMALTRND
 40
0.0
  9
$DIMAZIN
 70
     0
  9
$DIMDSEP
 70
    44
  9
$DIMATFIT
 70
     3
  9
$DIMFRAC
 70
     0
  9
$DIMLDRBLK
  1

  9
$DIMLUNIT
 70
     2
  9
$DIMLWD
 70
    -2
  9
$DIMLWE
 70
    -2
  9
$DIMTMOVE
 70
     0
  9
$LUNITS
 70
     2
  9
$LUPREC
 70
     2
  9
$SKETCHINC
 40
1.0
  9
$FILLETRAD
 40
0.0
  9
$AUNITS
 70
     0
  9
$AUPREC
 70
     2
  9
$MENU
  1
.
  9
$ELEVATION
 40
0.0
  9
$PELEVATION
 40
0.0
  9
$THICKNESS
 40
0.0
  9
$LIMCHECK
 70
     0
  9
$CHAMFERA
 40
0.0
  9
$CHAMFERB
 40
0.0
  9
$CHAMFERC
 40
0.0
  9
$CHAMFERD
 40
0.0
  9
$SKPOLY
 70
     0
  9
$TDCREATE
 40
2460647.488874017
  9
$TDUCREATE
 40
2460647.738874017
  9
$TDUPDATE
 40
2460647.488900394
  9
$TDUUPDATE
 40
2460647.738900394
  9
$TDINDWG
 40
0.0000000116
  9
$TDUSRTIMER
 40
0.0000000116
  9
$USRTIMER
 70
     1
  9
$ANGBASE
 50
0.0
  9
$ANGDIR
 70
     0
  9
$PDMODE
 70
     0
  9
$PDSIZE
 40
-1.0
  9
$PLINEWID
 40
0.0
  9
$SPLFRAME
 70
     0
  9
$SPLINETYPE
 70
     6
  9
$SPLINESEGS
 70
     8
  9
$HANDSEED
  5
D2
  9
$SURFTAB1
 70
     6
  9
$SURFTAB2
 70
     6
  9
$SURFTYPE
 70
     6
  9
$SURFU
 70
     6
  9
$SURFV
 70
     6
  9
$UCSBASE
  2

  9
$UCSNAME
  2

  9
$UCSORG
 10
0.0
 20
0.0
 30
0.0
  9
$UCSXDIR
 10
1.0
 20
0.0
 30
0.0
  9
$UCSYDIR
 10
0.0
 20
1.0
 30
0.0
  9
$UCSORTHOREF
  2

  9
$UCSORTHOVIEW
 70
     0
  9
$UCSORGTOP
 10
0.0
 20
0.0
 30
0.0
  9
$UCSORGBOTTOM
 10
0.0
 20
0.0
 30
0.0
  9
$UCSORGLEFT
 10
0.0
 20
0.0
 30
0.0
  9
$UCSORGRIGHT
 10
0.0
 20
0.0
 30
0.0
  9
$UCSORGFRONT
 10
0.0
 20
0.0
 30
0.0
  9
$UCSORGBACK
 10
0.0
 20
0.0
 30
0.0
  9
$PUCSBASE
  2

  9
$PUCSNAME
  2

  9
$PUCSORG
 10
0.0
 20
0.0
 30
0.0
  9
$PUCSXDIR
 10
1.0
 20
0.0
 30
0.0
  9
$PUCSYDIR
 10
0.0
 20
1.0
 30
0.0
  9
$PUCSORTHOREF
  2

  9
$PUCSORTHOVIEW
 70
     0
  9
$PUCSORGTOP
 10
0.0
 20
0.0
 30
0.0
  9
$PUCSORGBOTTOM
 10
0.0
 20
0.0
 30
0.0
  9
$PUCSORGLEFT
 10
0.0
 20
0.0
 30
0.0
  9
$PUCSORGRIGHT
 10
0.0
 20
0.0
 30
0.0
  9
$PUCSORGFRONT
 10
0.0
 20
0.0
 30
0.0
  9
$PUCSORGBACK
 10
0.0
 20
0.0
 30
0.0
  9
$USERI1
 70
     0
  9
$USERI2
 70
     0
  9
$USERI3
 70
     0
  9
$USERI4
 70
     0
  9
$USERI5
 70
     0
  9
$USERR1
 40
0.0
  9
$USERR2
 40
0.0
  9
$USERR3
 40
0.0
  9
$USERR4
 40
0.0
  9
$USERR5
 40
0.0
  9
$WORLDVIEW
 70
     1
  9
$SHADEDGE
 70
     3
  9
$SHADEDIF
 70
    70
  9
$TILEMODE
 70
     1
  9
$MAXACTVP
 70
    64
  9
$PINSBASE
 10
0.0
 20
0.0
 30
0.0
  9
$PLIMCHECK
 70
     0
  9
$PEXTMIN
 10
1.0000000000E+20
 20
1.0000000000E+20
 30
1.0000000000E+20
  9
$PEXTMAX
 10
-1.0000000000E+20
 20
-1.0000000000E+20
 30
-1.0000000000E+20
  9
$PLIMMIN
 10
0.0
 20
0.0
  9
$PLIMMAX
 10
420.0
 20
297.0
  9
$UNITMODE
 70
     0
  9
$VISRETAIN
 70
     1
  9
$PLINEGEN
 70
     0
  9
$PSLTSCALE
 70
     1
  9
$TREEDEPTH
 70
  3020
  9
$CMLSTYLE
  2
Standard
  9
$CMLJUST
 70
     0
  9
$CMLSCALE
 40
20.0
  9
$PROXYGRAPHICS
 70
     1
  9
$MEASUREMENT
 70
     1
  9
$CELWEIGHT
370
    -1
  9
$ENDCAPS
280
     0
  9
$JOINSTYLE
280
     0
  9
$LWDISPLAY
290
     1
  9
$INSUNITS
 70
     4
  9
$HYPERLINKBASE
  1

  9
$STYLESHEET
  1

  9
$XEDIT
290
     1
  9
$CEPSNTYPE
380
     0
  9
$PSTYLEMODE
290
     1
  9
$FINGERPRINTGUID
  2
{ec402ef8-18fe-44bf-82fc-6124e9709bd7}
  9
$VERSIONGUID
  2
{FAEB1C32-E019-11D5-929B-00C0DF256EC4}
  9
$EXTNAMES
290
     1
  9
$PSVPSCALE
 40
0.0
  9
$OLESTARTUP
290
     0
  0
ENDSEC
  0
SECTION
  2
CLASSES
  0
CLASS
  1
ACDBDICTIONARYWDFLT
  2
AcDbDictionaryWithDefault
  3
ObjectDBX Classes
 90
        0
280
     0
281
     0
  0
CLASS
  1
VISUALSTYLE
  2
AcDbVisualStyle
  3
ObjectDBX Classes
 90
     4095
280
     0
281
     0
  0
CLASS
  1
MATERIAL
  2
AcDbMaterial
  3
ObjectDBX Classes
 90
     1153
280
     0
281
     0
  0
CLASS
  1
SCALE
  2
AcDbScale
  3
ObjectDBX Classes
 90
     1153
280
     0
281
     0
  0
CLASS
  1
TABLESTYLE
  2
AcDbTableStyle
  3
ObjectDBX Classes
 90
     4095
280
     0
281
     0
  0
CLASS
  1
MLEADERSTYLE
  2
AcDbMLeaderStyle
  3
ACDB_MLEADERSTYLE_CLASS
 90
     4095
280
     0
281
     0
  0
CLASS
  1
SUN
  2
AcDbSun
  3
SCENEOE
 90
     1153
280
     0
281
     0
  0
CLASS
  1
ACDBPLACEHOLDER
  2
AcDbPlaceHolder
  3
ObjectDBX Classes
 90
        0
280
     0
281
     0
  0
CLASS
  1
LAYOUT
  2
AcDbLayout
  3
ObjectDBX Classes
 90
        0
280
     0
281
     0
  0
ENDSEC
  0
SECTION
  2
TABLES
  0
TABLE
  2
VPORT
  5
8
330
0
100
AcDbSymbolTable
 70
     1
  0
VPORT
  5
29
330
8
100
AcDbSymbolTableRecord
100
AcDbViewportTableRecord
  2
*Active
 70
     0
 10
0.0
 20
0.0
 11
1.0
 21
1.0
 12
1083.306542005
 22
-9999.1484487344
 13
0.0
 23
0.0
 14
10.0
 24
10.0
 15
10.0
 25
10.0
 16
0.0
 26
0.0
 36
1.0
 17
0.0
 27
0.0
 37
0.0
 40
78.3377958603
 41
0.5014164784
 42
50.0
 43
0.0
 44
0.0
 50
0.0
 51
0.0
 71
     0
 72
   100
 73
     1
 74
     3
 75
     0
 76
     0
 77
     0
 78
     0
281
     0
 65
     1
110
0.0
120
0.0
130
0.0
111
1.0
121
0.0
131
0.0
112
0.0
122
1.0
132
0.0
 79
     0
146
0.0
  0
ENDTAB
  0
TABLE
  2
LTYPE
  5
5
330
0
100
AcDbSymbolTable
 70
     6
  0
LTYPE
  5
14
330
5
100
AcDbSymbolTableRecord
100
AcDbLinetypeTableRecord
  2
ByBlock
 70
     0
  3

 72
    65
 73
     0
 40
0.0
  0
LTYPE
  5
15
330
5
100
AcDbSymbolTableRecord
100
AcDbLinetypeTableRecord
  2
ByLayer
 70
     0
  3

 72
    65
 73
     0
 40
0.0
  0
LTYPE
  5
16
330
5
100
AcDbSymbolTableRecord
100
AcDbLinetypeTableRecord
  2
Continuous
 70
     0
  3
Solid line
 72
    65
 73
     0
 40
0.0
  0
LTYPE
  5
5E
330
5
100
AcDbSymbolTableRecord
100
AcDbLinetypeTableRecord
  2
HIDDEN
 70
     0
  3
Hidden __ __ __ __ __ __ __ __ __ __ __ __ __ __
 72
    65
 73
     2
 40
1.905
 49
1.27
 74
     0
 49
-0.635
 74
     0
  0
LTYPE
  5
5F
330
5
100
AcDbSymbolTableRecord
100
AcDbLinetypeTableRecord
  2
PHANTOM
 70
     0
  3
Phantom ______  __  __  ______  __  __  ______
 72
    65
 73
     6
 40
12.7
 49
6.35
 74
     0
 49
-1.27
 74
     0
 49
1.27
 74
     0
 49
-1.27
 74
     0
 49
1.27
 74
     0
 49
-1.27
 74
     0
  0
LTYPE
  5
60
330
5
100
AcDbSymbolTableRecord
100
AcDbLinetypeTableRecord
  2
CENTER
 70
     0
  3
Center ____ _ ____ _ ____ _ ____ _ ____ _ ____
 72
    65
 73
     4
 40
10.16
 49
6.35
 74
     0
 49
-1.27
 74
     0
 49
1.27
 74
     0
 49
-1.27
 74
     0
  0
LTYPE
  5
61
330
5
100
AcDbSymbolTableRecord
100
AcDbLinetypeTableRecord
  2
CENTERX2
 70
     0
  3
Center (2x) ________  __  ________  __  _____
 72
    65
 73
     4
 40
20.32
 49
12.7
 74
     0
 49
-2.54
 74
     0
 49
2.54
 74
     0
 49
-2.54
 74
     0
  0
LTYPE
  5
62
330
5
100
AcDbSymbolTableRecord
100
AcDbLinetypeTableRecord
  2
DOT2
 70
     0
  3
Dot (.5x) ........................................
 72
    65
 73
     2
 40
0.635
 49
0.0
 74
     0
 49
-0.635
 74
     0
  0
ENDTAB
  0
TABLE
  2
LAYER
  5
2
330
0
100
AcDbSymbolTable
 70
     1
  0
LAYER
  5
10
330
2
100
AcDbSymbolTableRecord
100
AcDbLayerTableRecord
  2
0
 70
     0
 62
     7
  6
Continuous
370
    -3
390
F
  0
ENDTAB
  0
TABLE
  2
STYLE
  5
3
330
0
100
AcDbSymbolTable
 70
     1
  0
STYLE
  5
11
330
3
100
AcDbSymbolTableRecord
100
AcDbTextStyleTableRecord
  2
Standard
 70
     0
 40
0.0
 41
1.0
 50
0.0
 71
     0
 42
3.5
  3
txt
  4

  0
ENDTAB
  0
TABLE
  2
VIEW
  5
6
330
0
100
AcDbSymbolTable
 70
     0
  0
ENDTAB
  0
TABLE
  2
UCS
  5
7
330
0
100
AcDbSymbolTable
 70
     0
  0
ENDTAB
  0
TABLE
  2
APPID
  5
9
330
0
100
AcDbSymbolTable
 70
     1
  0
APPID
  5
12
330
9
100
AcDbSymbolTableRecord
100
AcDbRegAppTableRecord
  2
ACAD
 70
     0
  0
ENDTAB
  0
TABLE
  2
DIMSTYLE
  5
A
330
0
100
AcDbSymbolTable
 70
     1
100
AcDbDimStyleTable
  0
DIMSTYLE
105
27
330
A
100
AcDbSymbolTableRecord
100
AcDbDimStyleTableRecord
  2
ISO-25
 70
     0
 41
2.5
 42
0.625
 43
3.75
 44
1.25
 73
     0
 74
     0
 77
     1
 78
     8
140
2.5
141
2.5
143
0.0393700787
147
0.625
171
     3
172
     1
178
     0
271
     2
272
     2
274
     3
278
    44
283
     0
284
     8
340
11
  0
ENDTAB
  0
TABLE
  2
BLOCK_RECORD
  5
1
330
0
100
AcDbSymbolTable
 70
     1
  0
BLOCK_RECORD
  5
1F
330
1
100
AcDbSymbolTableRecord
100
AcDbBlockTableRecord
  2
*Model_Space
340
22
  0
BLOCK_RECORD
  5
1B
330
1
100
AcDbSymbolTableRecord
100
AcDbBlockTableRecord
  2
*Paper_Space
340
1E
  0
BLOCK_RECORD
  5
23
330
1
100
AcDbSymbolTableRecord
100
AcDbBlockTableRecord
  2
*Paper_Space0
340
26
  0
ENDTAB
  0
ENDSEC
  0
SECTION
  2
BLOCKS
  0
BLOCK
  5
20
330
1F
100
AcDbEntity
  8
0
100
AcDbBlockBegin
  2
*Model_Space
 70
     0
 10
0.0
 20
0.0
 30
0.0
  3
*Model_Space
  1

  0
ENDBLK
  5
21
330
1F
100
AcDbEntity
  8
0
100
AcDbBlockEnd
  0
BLOCK
  5
1C
330
1B
100
AcDbEntity
 67
     1
  8
0
100
AcDbBlockBegin
  2
*Paper_Space
 70
     0
 10
0.0
 20
0.0
 30
0.0
  3
*Paper_Space
  1

  0
ENDBLK
  5
1D
330
1B
100
AcDbEntity
 67
     1
  8
0
100
AcDbBlockEnd
  0
BLOCK
  5
24
330
23
100
AcDbEntity
  8
0
100
AcDbBlockBegin
  2
*Paper_Space0
 70
     0
 10
0.0
 20
0.0
 30
0.0
  3
*Paper_Space0
  1

  0
ENDBLK
  5
25
330
23
100
AcDbEntity
  8
0
100
AcDbBlockEnd
  0
ENDSEC
  0
SECTION
  2
ENTITIES
  0
SPLINE
  5
71
330
1F
100
AcDbEntity
  8
0
  6
Continuous
 62
     7
370
    25
100
AcDbSpline
210
0.0
220
0.0
230
1.0
 70
     8
 71
     3
 72
    11
 73
     7
 74
     0
 42
0.00000001
 43
0.00000001
 40
0.0
 40
0.0
 40
0.0
 40
0.0
 40
1.0
 40
1.0
 40
1.0
 40
2.0
 40
2.0
 40
2.0
 40
2.0
 10
1094.898420366328
 20
-9985.530486140438
 30
0.0
 10
1095.660988056657
 20
-9985.644871293996
 30
0.0
 10
1096.470176123175
 20
-9985.58726267543
 30
0.0
 10
1097.186123437316
 20
-9985.873641601102
 30
0.0
 10
1097.603331950779
 20
-9986.040525006483
 30
0.0
 10
1097.821596512588
 20
-9986.509114676368
 30
0.0
 10
1098.139333050225
 20
-9986.826851214011
 30
0.0
  0
SPLINE
  5
72
330
1F
100
AcDbEntity
  8
0
  6
Continuous
 62
     7
370
    25
100
AcDbSpline
210
0.0
220
0.0
230
1.0
 70
     8
 71
     3
 72
    17
 73
    13
 74
     0
 42
0.00000001
 43
0.00000001
 40
0.0
 40
0.0
 40
0.0
 40
0.0
 40
1.0
 40
1.0
 40
1.0
 40
2.0
 40
2.0
 40
2.0
 40
3.0
 40
3.0
 40
3.0
 40
4.0
 40
4.0
 40
4.0
 40
4.0
 10
1098.139333050225
 20
-9986.826851214011
 30
0.0
 10
1097.427795919381
 20
-9987.597683105761
 30
0.0
 10
1095.4057803972
 20
-9988.721620542685
 30
0.0
 10
1094.440879752126
 20
-9989.22893943855
 30
0.0
 10
1093.540299299101
 20
-9989.70244050148
 30
0.0
 10
1092.685250492698
 20
-9990.326976352417
 30
0.0
 10
1091.69563606694
 20
-9990.563432896633
 30
0.0
 10
1091.132679022855
 20
-9990.697944756726
 30
0.0
 10
1090.46145280483
 20
-9989.97547151093
 30
0.0
 10
1089.979858763698
 20
-9990.296534205016
 30
0.0
 10
1088.195949515649
 20
-9991.485807037054
 30
0.0
 10
1089.158169965191
 20
-9991.146803497502
 30
0.0
 10
1087.997182768841
 20
-9991.478514125023
 30
0.0
  0
SPLINE
  5
73
330
1F
100
AcDbEntity
  8
0
  6
Continuous
 62
     7
370
    25
100
AcDbSpline
210
0.0
220
0.0
230
1.0
 70
     8
 71
     3
 72
    29
 73
    25
 74
     0
 42
0.00000001
 43
0.00000001
 40
0.0
 40
0.0
 40
0.0
 40
0.0
 40
1.0
 40
1.0
 40
1.0
 40
2.0
 40
2.0
 40
2.0
 40
3.0
 40
3.0
 40
3.0
 40
4.0
 40
4.0
 40
4.0
 40
5.0
 40
5.0
 40
5.0
 40
6.0
 40
6.0
 40
6.0
 40
7.0
 40
7.0
 40
7.0
 40
8.0
 40
8.0
 40
8.0
 40
8.0
 10
1087.997182768841
 20
-9991.478514125023
 30
0.0
 10
1087.641317846687
 20
-9992.851135967621
 30
0.0
 10
1086.888304471523
 20
-9994.178978426737
 30
0.0
 10
1086.929588002379
 20
-9995.59637965281
 30
0.0
 10
1086.967970495429
 20
-9996.914178580855
 30
0.0
 10
1087.591159417019
 20
-9998.177494225927
 30
0.0
 10
1088.22595307594
 20
-9999.332961335425
 30
0.0
 10
1088.742365803119
 20
-10000.2729485467
 30
0.0
 10
1089.796504625242
 20
-10000.83880879678
 30
0.0
 10
1090.323014224347
 20
-10001.77317794448
 30
0.0
 10
1090.722524292863
 20
-10002.48216764354
 30
0.0
 10
1090.726160769549
 20
-10003.35007747528
 30
0.0
 10
1090.933068376613
 20
-10004.13713778451
 30
0.0
 10
1091.374346405044
 20
-10005.81572479463
 30
0.0
 10
1091.476334050013
 20
-10007.62530648489
 30
0.0
 10
1092.26756183469
 20
-10009.17008454068
 30
0.0
 10
1092.606643293505
 20
-10009.83210072218
 30
0.0
 10
1093.624574355284
 20
-10009.8499742422
 30
0.0
 10
1094.135852675997
 20
-10010.39019284521
 30
0.0
 10
1094.932129367589
 20
-10011.23154180236
 30
0.0
 10
1093.565593215607
 20
-10011.94512507361
 30
0.0
 10
1093.449541754702
 20
-10012.52538237814
 30
0.0
 10
1093.132073964619
 20
-10014.11272132855
 30
0.0
 10
1093.677948809874
 20
-10014.91093733699
 30
0.0
 10
1094.250237829547
 20
-10016.22383567624
 30
0.0
  0
SPLINE
  5
75
330
1F
100
AcDbEntity
  8
0
  6
Continuous
 62
     7
370
    25
100
AcDbSpline
210
0.0
220
0.0
230
1.0
 70
     8
 71
     3
 72
    17
 73
    13
 74
     0
 42
0.00000001
 43
0.00000001
 40
0.0
 40
0.0
 40
0.0
 40
0.0
 40
1.0
 40
1.0
 40
1.0
 40
2.0
 40
2.0
 40
2.0
 40
3.0
 40
3.0
 40
3.0
 40
4.0
 40
4.0
 40
4.0
 40
4.0
 10
1093.830825599867
 20
-10016.91014659753
 30
0.0
 10
1093.614764754273
 20
-10016.88472767452
 30
0.0
 10
1093.337783941338
 20
-10016.98640120034
 30
0.0
 10
1093.182643063086
 20
-10016.8338898285
 30
0.0
 10
1091.726656923682
 20
-10015.40258142027
 30
0.0
 10
1091.293252158019
 20
-10014.18657035869
 30
0.0
 10
1090.589912915964
 20
-10012.33474045555
 30
0.0
 10
1089.88900111845
 20
-10010.48930179881
 30
0.0
 10
1089.38835453453
 20
-10008.56403561932
 30
0.0
 10
1088.569108536589
 20
-10006.76799631614
 30
0.0
 10
1086.402775714671
 20
-10002.01872820656
 30
0.0
 10
1087.081219441327
 20
-10002.69337868663
 30
0.0
 10
1085.137553930104
 20
-10001.04873863867
 30
0.0
  0
SPLINE
  5
76
330
1F
100
AcDbEntity
  8
0
  6
Continuous
 62
     7
370
    25
100
AcDbSpline
210
0.0
220
0.0
230
1.0
 70
     8
 71
     3
 72
    14
 73
    10
 74
     0
 42
0.00000001
 43
0.00000001
 40
0.0
 40
0.0
 40
0.0
 40
0.0
 40
1.0
 40
1.0
 40
1.0
 40
2.0
 40
2.0
 40
2.0
 40
3.0
 40
3.0
 40
3.0
 40
3.0
 10
1085.137553930104
 20
-10001.04873863867
 30
0.0
 10
1085.023168776555
 20
-10001.98923879008
 30
0.0
 10
1084.893066395603
 20
-10002.92796039818
 30
0.0
 10
1084.794398469456
 20
-10003.87023909289
 30
0.0
 10
1084.638854692296
 20
-10005.35568216477
 30
0.0
 10
1084.693365020935
 20
-10006.872024001
 30
0.0
 10
1084.374986239774
 20
-10008.33126008132
 30
0.0
 10
1083.225212051244
 20
-10013.60105844542
 30
0.0
 10
1080.73408774301
 20
-10014.06067121001
 30
0.0
 10
1084.374986239774
 20
-10016.75763305946
 30
0.0
  0
SPLINE
  5
7F
330
1F
100
AcDbEntity
  8
0
  6
Continuous
 62
     7
370
    25
100
AcDbSpline
210
0.0
220
0.0
230
1.0
 70
     8
 71
     3
 72
    23
 73
    19
 74
     0
 42
0.00000001
 43
0.00000001
 40
0.0
 40
0.0
 40
0.0
 40
0.0
 40
1.0
 40
1.0
 40
1.0
 40
2.0
 40
2.0
 40
2.0
 40
3.0
 40
3.0
 40
3.0
 40
4.0
 40
4.0
 40
4.0
 40
5.0
 40
5.0
 40
5.0
 40
6.0
 40
6.0
 40
6.0
 40
6.0
 10
1080.599426705104
 20
-10017.36849845431
 30
0.0
 10
1080.458520781046
 20
-10016.33518834455
 30
0.0
 10
1080.342546088269
 20
-10015.27506303279
 30
0.0
 10
1080.485041551555
 20
-10014.24197092396
 30
0.0
 10
1080.520842224938
 20
-10013.98241604193
 30
0.0
 10
1080.662526293549
 20
-10013.74108493647
 30
0.0
 10
1080.675683474137
 20
-10013.47940323363
 30
0.0
 10
1080.777192084176
 20
-10011.46050976731
 30
0.0
 10
1080.71232409413
 20
-10009.43511008529
 30
0.0
 10
1080.828197012204
 20
-10007.41699009551
 30
0.0
 10
1080.880066096306
 20
-10006.51360354739
 30
0.0
 10
1081.272243116646
 20
-10005.65140382912
 30
0.0
 10
1081.323866010918
 20
-10004.74800317935
 30
0.0
 10
1081.487137698004
 20
-10001.89074865536
 30
0.0
 10
1081.966118248276
 20
-9999.015360183446
 30
0.0
 10
1081.667021471567
 20
-9996.169116663143
 30
0.0
 10
1081.559933982627
 20
-9995.15005830066
 30
0.0
 10
1080.650264551127
 20
-9994.389792052372
 30
0.0
 10
1080.141886090907
 20
-9993.500129746993
 30
0.0
  0
SPLINE
  5
80
330
1F
100
AcDbEntity
  8
0
  6
Continuous
 62
     7
370
    25
100
AcDbSpline
210
0.0
220
0.0
230
1.0
 70
     8
 71
     3
 72
    20
 73
    16
 74
     0
 42
0.00000001
 43
0.00000001
 40
0.0
 40
0.0
 40
0.0
 40
0.0
 40
1.0
 40
1.0
 40
1.0
 40
2.0
 40
2.0
 40
2.0
 40
3.0
 40
3.0
 40
3.0
 40
4.0
 40
4.0
 40
4.0
 40
5.0
 40
5.0
 40
5.0
 40
5.0
 10
1080.141886090907
 20
-9993.500129746993
 30
0.0
 10
1079.191772103013
 20
-9993.332462572653
 30
0.0
 10
1078.261657792114
 20
-9993.13282836085
 30
0.0
 10
1077.320385636687
 20
-9992.92820397924
 30
0.0
 10
1076.889270146861
 20
-9992.834483220584
 30
0.0
 10
1076.464891709999
 20
-9992.644668640576
 30
0.0
 10
1076.024020563125
 20
-9992.661305287624
 30
0.0
 10
1075.726929662134
 20
-9992.67251626502
 30
0.0
 10
1074.604756678831
 20
-9993.31140610351
 30
0.0
 10
1073.965087799235
 20
-9993.195102670858
 30
0.0
 10
1073.49788273905
 20
-9993.110156296278
 30
0.0
 10
1072.982708570198
 20
-9993.084387037758
 30
0.0
 10
1072.592465956641
 20
-9992.813818825694
 30
0.0
 10
1071.99383431373
 20
-9992.398767553272
 30
0.0
 10
1071.601127959212
 20
-9991.746224059229
 30
0.0
 10
1071.105458960497
 20
-9991.212426675995
 30
0.0
  0
SPLINE
  5
84
330
1F
100
AcDbEntity
  8
0
  6
Continuous
 62
     7
370
    25
100
AcDbSpline
210
0.0
220
0.0
230
1.0
 70
     8
 71
     3
 72
     8
 73
     4
 74
     0
 42
0.00000001
 43
0.00000001
 40
0.0
 40
0.0
 40
0.0
 40
0.0
 40
0.4980573667330121
 40
0.4980573667330121
 40
0.4980573667330121
 40
0.4980573667330121
 10
1078.426108787665
 20
-9984.158675540448
 30
0.0
 10
1079.509527044965
 20
-9981.914975030162
 30
0.0
 10
1079.484108121954
 20
-9979.614562497669
 30
0.0
 10
1078.349852018632
 20
-9977.257437942964
 30
0.0
  0
SPLINE
  5
85
330
1F
100
AcDbEntity
  8
0
  6
Continuous
 62
     7
370
    25
100
AcDbSpline
210
0.0
220
0.0
230
1.0
 70
     8
 71
     3
 72
    11
 73
     7
 74
     0
 42
0.00000001
 43
0.00000001
 40
0.0
 40
0.0
 40
0.0
 40
0.0
 40
1.0
 40
1.0
 40
1.0
 40
2.0
 40
2.0
 40
2.0
 40
2.0
 10
1078.349852018632
 20
-9977.257437942964
 30
0.0
 10
1076.735750407433
 20
-9978.083552940818
 30
0.0
 10
1075.200792384001
 20
-9979.087160783709
 30
0.0
 10
1073.507547185037
 20
-9979.735782936534
 30
0.0
 10
1071.509796682446
 20
-9980.501050266155
 30
0.0
 10
1069.349616930007
 20
-9980.749461823038
 30
0.0
 10
1067.292620508848
 20
-9981.337175086226
 30
0.0
  0
SPLINE
  5
89
330
1F
100
AcDbEntity
  8
0
  6
Continuous
 62
     7
370
    25
100
AcDbSpline
210
0.0
220
0.0
230
1.0
 70
     8
 71
     3
 72
    44
 73
    40
 74
     0
 42
0.00000001
 43
0.00000001
 40
0.0
 40
0.0
 40
0.0
 40
0.0
 40
1.0
 40
1.0
 40
1.0
 40
2.0
 40
2.0
 40
2.0
 40
3.0
 40
3.0
 40
3.0
 40
4.0
 40
4.0
 40
4.0
 40
5.0
 40
5.0
 40
5.0
 40
6.0
 40
6.0
 40
6.0
 40
7.0
 40
7.0
 40
7.0
 40
8.0
 40
8.0
 40
8.0
 40
9.0
 40
9.0
 40
9.0
 40
10.0
 40
10.0
 40
10.0
 40
11.0
 40
11.0
 40
11.0
 40
12.0
 40
12.0
 40
12.0
 40
13.0
 40
13.0
 40
13.0
 40
13.0
 10
1064.051707824946
 20
-9985.683810921106
 30
0.0
 10
1064.220717481795
 20
-9985.058566796599
 30
0.0
 10
1064.269208556926
 20
-9984.38744706451
 30
0.0
 10
1064.558736795493
 20
-9983.808078547578
 30
0.0
 10
1065.179674497983
 20
-9982.565533925397
 30
0.0
 10
1065.659282686947
 20
-9981.118440150807
 30
0.0
 10
1066.757924906259
 20
-9980.268460126088
 30
0.0
 10
1068.745119901967
 20
-9978.731038732769
 30
0.0
 10
1071.237970545029
 20
-9977.992029999044
 30
0.0
 10
1073.497198013948
 20
-9976.892712149072
 30
0.0
 10
1074.091471050603
 20
-9976.603544738555
 30
0.0
 10
1074.749483819115
 20
-9976.443953628203
 30
0.0
 10
1075.316269764927
 20
-9976.104053753197
 30
0.0
 10
1076.558743338481
 20
-9975.358945982845
 30
0.0
 10
1077.791945252873
 20
-9974.579298487753
 30
0.0
 10
1078.903749629473
 20
-9973.650418948422
 30
0.0
 10
1079.342653551662
 20
-9973.283727755586
 30
0.0
 10
1079.474433395872
 20
-9972.629732782065
 30
0.0
 10
1079.913484272842
 20
-9972.263217555575
 30
0.0
 10
1080.428374839234
 20
-9971.833392124277
 30
0.0
 10
1081.103426575136
 20
-9971.643773345339
 30
0.0
 10
1081.69225081528
 20
-9971.322606393474
 30
0.0
 10
1082.036876203152
 20
-9971.134634707167
 30
0.0
 10
1082.523565396693
 20
-9971.079603027065
 30
0.0
 10
1082.713434248455
 20
-9970.736019220765
 30
0.0
 10
1083.060847990063
 20
-9970.107344561418
 30
0.0
 10
1083.080009923818
 20
-9969.343503200023
 30
0.0
 10
1083.179067649526
 20
-9968.632085107669
 30
0.0
 10
1083.265113398276
 20
-9968.014117129962
 30
0.0
 10
1083.350903863901
 20
-9967.380575076906
 30
0.0
 10
1083.266727266667
 20
-9966.762349719276
 30
0.0
 10
1083.219177760113
 20
-9966.41312782553
 30
0.0
 10
1082.862514928074
 20
-9966.161814113679
 30
0.0
 10
1082.795603914915
 20
-9965.815779718047
 30
0.0
 10
1082.360023651189
 20
-9963.563149751899
 30
0.0
 10
1082.768661412192
 20
-9965.22332748207
 30
0.0
 10
1083.041758463884
 20
-9964.363232961192
 30
0.0
 10
1083.189176612688
 20
-9963.898952804091
 30
0.0
 10
1083.191236002085
 20
-9963.385940981516
 30
0.0
 10
1083.40283165334
 20
-9962.947175149615
 30
0.0
  0
SPLINE
  5
8D
330
1F
100
AcDbEntity
  8
0
  6
Continuous
 62
     7
370
    25
100
AcDbSpline
210
0.0
220
0.0
230
1.0
 70
     8
 71
     3
 72
    35
 73
    31
 74
     0
 42
0.00000001
 43
0.00000001
 40
0.0
 40
0.0
 40
0.0
 40
0.0
 40
1.0
 40
1.0
 40
1.0
 40
2.0
 40
2.0
 40
2.0
 40
3.0
 40
3.0
 40
3.0
 40
4.0
 40
4.0
 40
4.0
 40
5.0
 40
5.0
 40
5.0
 40
6.0
 40
6.0
 40
6.0
 40
7.0
 40
7.0
 40
7.0
 40
8.0
 40
8.0
 40
8.0
 40
9.0
 40
9.0
 40
9.0
 40
10.0
 40
10.0
 40
10.0
 40
10.0
 10
1083.649697466081
 20
-9962.501753134715
 30
0.0
 10
1083.759149270984
 20
-9962.255486573866
 30
0.0
 10
1083.997757003814
 20
-9961.79562698273
 30
0.0
 10
1084.183494849705
 20
-9961.586671906216
 30
0.0
 10
1084.297509351551
 20
-9961.45840559171
 30
0.0
 10
1084.775409564426
 20
-9961.341032431852
 30
0.0
 10
1084.946062540336
 20
-9961.243516445682
 30
0.0
 10
1085.228046953148
 20
-9961.082382495604
 30
0.0
 10
1085.460153376804
 20
-9960.753085086055
 30
0.0
 10
1085.784887000062
 20
-9960.74784744706
 30
0.0
 10
1086.315580670586
 20
-9960.739287871877
 30
0.0
 10
1086.898671373792
 20
-9960.8699787788
 30
0.0
 10
1087.310022381013
 20
-9961.205388061797
 30
0.0
 10
1087.783030914897
 20
-9961.591071943487
 30
0.0
 10
1087.997400938084
 20
-9962.219267645542
 30
0.0
 10
1088.263231993761
 20
-9962.768651827659
 30
0.0
 10
1088.382732301265
 20
-9963.015619130001
 30
0.0
 10
1088.388726389201
 20
-9963.302835292096
 30
0.0
 10
1088.453873916179
 20
-9963.569347902772
 30
0.0
 10
1088.528532661502
 20
-9963.87477004309
 30
0.0
 10
1088.697599406002
 20
-9964.170370292159
 30
0.0
 10
1088.682644223092
 20
-9964.48442913148
 30
0.0
 10
1088.593636412001
 20
-9966.353593153697
 30
0.0
 10
1088.485588194758
 20
-9966.725977239083
 30
0.0
 10
1087.46253591727
 20
-9968.030368892149
 30
0.0
 10
1087.26287259012
 20
-9968.284939634124
 30
0.0
 10
1086.903004157454
 20
-9968.419024390188
 30
0.0
 10
1086.776224995599
 20
-9968.716679813451
 30
0.0
 10
1086.595211155333
 20
-9969.141668829405
 30
0.0
 10
1086.649130380261
 20
-9969.631761042057
 30
0.0
 10
1086.585583072592
 20
-9970.089301656366
 30
0.0
  0
SPLINE
  5
8E
330
1F
100
AcDbEntity
  8
0
  6
Continuous
 62
     7
370
    25
100
AcDbSpline
210
0.0
220
0.0
230
1.0
 70
     8
 71
     3
 72
    26
 73
    22
 74
     0
 42
0.00000001
 43
0.00000001
 40
0.0
 40
0.0
 40
0.0
 40
0.0
 40
1.0
 40
1.0
 40
1.0
 40
2.0
 40
2.0
 40
2.0
 40
3.0
 40
3.0
 40
3.0
 40
4.0
 40
4.0
 40
4.0
 40
5.0
 40
5.0
 40
5.0
 40
6.0
 40
6.0
 40
6.0
 40
7.0
 40
7.0
 40
7.0
 40
7.0
 10
1086.585583072592
 20
-9970.089301656366
 30
0.0
 10
1087.144799378834
 20
-9970.58497065508
 30
0.0
 10
1087.627035061944
 20
-9971.18430852431
 30
0.0
 10
1088.263231991318
 20
-9971.576308652508
 30
0.0
 10
1088.904195880769
 20
-9971.971245998535
 30
0.0
 10
1089.719754559015
 20
-9972.019506341434
 30
0.0
 10
1090.360293139726
 20
-9972.41513311187
 30
0.0
 10
1091.034709985537
 20
-9972.831684693107
 30
0.0
 10
1091.438263351927
 20
-9973.634207822188
 30
0.0
 10
1092.152327212001
 20
-9973.978396877048
 30
0.0
 10
1093.246876569781
 20
-9974.505985416408
 30
0.0
 10
1094.55654440172
 20
-9974.461337552932
 30
0.0
 10
1095.660138587518
 20
-9974.969734874478
 30
0.0
 10
1096.844793149287
 20
-9975.515474616413
 30
0.0
 10
1097.842327734092
 20
-9976.399124040301
 30
0.0
 10
1098.939179655937
 20
-9977.1049244074
 30
0.0
 10
1099.30398025093
 20
-9977.339665659829
 30
0.0
 10
1099.790232016466
 20
-9977.440057712394
 30
0.0
 10
1100.044902806915
 20
-9977.791235328703
 30
0.0
 10
1101.021311109548
 20
-9979.137650988117
 30
0.0
 10
1101.72255172564
 20
-9980.663573628935
 30
0.0
 10
1102.561376185003
 20
-9982.099742779057
 30
0.0
  0
SPLINE
  5
93
330
1F
100
AcDbEntity
  8
0
  6
Continuous
 62
     7
370
    25
100
AcDbSpline
210
0.0
220
0.0
230
1.0
 70
     8
 71
     3
 72
     8
 73
     4
 74
     0
 42
0.00000001
 43
0.00000001
 40
0.2329182625570059
 40
0.2329182625570059
 40
0.2329182625570059
 40
0.2329182625570059
 40
1.0
 40
1.0
 40
1.0
 40
1.0
 10
1098.483074605131
 20
-9981.905735314987
 30
0.0
 10
1098.593653600218
 20
-9982.096410001304
 30
0.0
 10
1098.713051304356
 20
-9981.959335841457
 30
0.0
 10
1098.841267717627
 20
-9981.49451283558
 30
0.0
  0
SPLINE
  5
95
330
1F
100
AcDbEntity
  8
0
  6
Continuous
 62
     7
370
    25
100
AcDbSpline
210
0.0
220
0.0
230
1.0
 70
     8
 71
     3
 72
     8
 73
     4
 74
     0
 42
0.00000001
 43
0.00000001
 40
0.0
 40
0.0
 40
0.0
 40
0.0
 40
0.292341380026819
 40
0.292341380026819
 40
0.292341380026819
 40
0.292341380026819
 10
1097.234215970236
 20
-9978.547016077062
 30
0.0
 10
1096.747485271651
 20
-9978.405827019458
 30
0.0
 10
1096.258373766023
 20
-9978.272101947055
 30
0.0
 10
1095.768969478601
 20
-9978.139294764653
 30
0.0
  0
SPLINE
  5
98
330
1F
100
AcDbEntity
  8
0
  6
Continuous
 62
     7
370
    25
100
AcDbSpline
210
0.0
220
0.0
230
1.0
 70
     8
 71
     3
 72
    11
 73
     7
 74
     0
 42
0.00000001
 43
0.00000001
 40
0.8791336045583983
 40
0.8791336045583983
 40
0.8791336045583983
 40
0.8791336045583983
 40
1.0
 40
1.0
 40
1.0
 40
1.797436755341775
 40
1.797436755341775
 40
1.797436755341775
 40
1.797436755341775
 10
1092.835296362566
 20
-9977.29773343009
 30
0.0
 10
1092.635947891821
 20
-9977.233444735908
 30
0.0
 10
1092.43726578236
 20
-9977.167066955686
 30
0.0
 10
1092.239397598577
 20
-9977.098137465435
 30
0.0
 10
1091.068069066903
 20
-9976.690092690056
 30
0.0
 10
1089.938326007932
 20
-9976.173118314437
 30
0.0
 10
1088.800425745031
 20
-9975.67751103904
 30
0.0
  0
SPLINE
  5
A1
330
1F
100
AcDbEntity
  8
0
  6
Continuous
 62
     7
370
    25
100
AcDbSpline
210
0.0
220
0.0
230
1.0
 70
     8
 71
     3
 72
     8
 73
     4
 74
     0
 42
0.00000001
 43
0.00000001
 40
0.0
 40
0.0
 40
0.0
 40
0.0
 40
1.0
 40
1.0
 40
1.0
 40
1.0
 10
1086.056693204592
 20
-9982.747114071344
 30
0.0
 10
1085.908271140879
 20
-9982.249970342218
 30
0.0
 10
1085.91619939466
 20
-9981.779990680514
 30
0.0
 10
1086.080477965933
 20
-9981.337175086226
 30
0.0
  0
LINE
  5
A2
330
1F
100
AcDbEntity
  8
0
  6
Continuous
 62
     7
370
    25
100
AcDbLine
 10
1086.7523900434
 20
-9983.7528335724
 30
0.0
 11
1086.0566932046
 21
-9982.7471140713
 31
0.0
  0
LINE
  5
A3
330
1F
100
AcDbEntity
  8
0
  6
Continuous
 62
     7
370
    25
100
AcDbLine
 10
1086.920421304
 20
-9983.9307507218
 30
0.0
 11
1086.7523900434
 21
-9983.7528335724
 31
0.0
  0
LINE
  5
A4
330
1F
100
AcDbEntity
  8
0
  6
Continuous
 62
     7
370
    25
100
AcDbLine
 10
1087.1127482983
 20
-9984.0710282838
 30
0.0
 11
1086.920421304
 21
-9983.9307507218
 31
0.0
  0
LINE
  5
A5
330
1F
100
AcDbEntity
  8
0
  6
Continuous
 62
     7
370
    25
100
AcDbLine
 10
1087.1950753685
 20
-9984.111343576
 30
0.0
 11
1087.1127482983
 21
-9984.0710282838
 31
0.0
  0
LINE
  5
A6
330
1F
100
AcDbEntity
  8
0
  6
Continuous
 62
     7
370
    25
100
AcDbLine
 10
1087.4346962171
 20
-9984.1732736238
 30
0.0
 11
1087.1950753685
 21
-9984.111343576
 31
0.0
  0
LINE
  5
A7
330
1F
100
AcDbEntity
  8
0
  6
Continuous
 62
     7
370
    25
100
AcDbLine
 10
1088.1172426404
 20
-9984.2537524311
 30
0.0
 11
1087.4346962171
 21
-9984.1732736238
 31
0.0
  0
LINE
  5
A8
330
1F
100
AcDbEntity
  8
0
  6
Continuous
 62
     7
370
    25
100
AcDbLine
 10
1088.9419096274
 20
-9984.27319755
 30
0.0
 11
1088.1172426404
 21
-9984.2537524311
 31
0.0
  0
LINE
  5
A9
330
1F
100
AcDbEntity
  8
0
  6
Continuous
 62
     7
370
    25
100
AcDbLine
 10
1090.0409128767
 20
-9984.2251420952
 30
0.0
 11
1088.9419096274
 21
-9984.27319755
 31
0.0
  0
LINE
  5
AA
330
1F
100
AcDbEntity
  8
0
  6
Continuous
 62
     7
370
    25
100
AcDbLine
 10
1090.5104444012
 20
-9984.1966026544
 30
0.0
 11
1090.0409128767
 21
-9984.2251420952
 31
0.0
  0
LINE
  5
AB
330
1F
100
AcDbEntity
  8
0
  6
Continuous
 62
     7
370
    25
100
AcDbLine
 10
1090.959511365
 20
-9984.1730405575
 30
0.0
 11
1090.5104444012
 21
-9984.1966026544
 31
0.0
  0
LINE
  5
AC
330
1F
100
AcDbEntity
  8
0
  6
Continuous
 62
     7
370
    25
100
AcDbLine
 10
1091.5875285732
 20
-9984.1565934536
 30
0.0
 11
1090.959511365
 21
-9984.1730405575
 31
0.0
  0
LINE
  5
AD
330
1F
100
AcDbEntity
  8
0
  6
Continuous
 62
     7
370
    25
100
AcDbLine
 10
1092.0915211269
 20
-9984.1684772749
 30
0.0
 11
1091.5875285732
 21
-9984.1565934536
 31
0.0
  0
LINE
  5
AE
330
1F
100
AcDbEntity
  8
0
  6
Continuous
 62
     7
370
    25
100
AcDbLine
 10
1094.7459068283
 20
-9984.539148143
 30
0.0
 11
1092.0915211269
 21
-9984.1684772749
 31
0.0
  0
LINE
  5
AF
330
1F
100
AcDbEntity
  8
0
  6
Continuous
 62
     7
370
    25
100
AcDbLine
 10
1094.7459068283
 20
-9984.539148143
 30
0.0
 11
1094.8984203663
 21
-9985.5304861404
 31
0.0
  0
LINE
  5
B0
330
1F
100
AcDbEntity
  8
0
  6
Continuous
 62
     7
370
    25
100
AcDbLine
 10
1094.2502378295
 20
-10016.2238356762
 30
0.0
 11
1093.8308255999
 21
-10016.9101465975
 31
0.0
  0
LINE
  5
B1
330
1F
100
AcDbEntity
  8
0
  6
Continuous
 62
     7
370
    25
100
AcDbLine
 10
1084.3749862398
 20
-10016.7576330595
 30
0.0
 11
1084.1843443172
 21
-10017.4058155962
 31
0.0
  0
LINE
  5
B2
330
1F
100
AcDbEntity
  8
0
  6
Continuous
 62
     7
370
    25
100
AcDbLine
 10
1084.1843443172
 20
-10017.4058155962
 30
0.0
 11
1084.1843443172
 21
-10017.549329058
 31
0.0
  0
LINE
  5
B3
330
1F
100
AcDbEntity
  8
0
  6
Continuous
 62
     7
370
    25
100
AcDbLine
 10
1084.1843443172
 20
-10017.549329058
 30
0.0
 11
1086.5855830729
 21
-10017.549329058
 31
0.0
  0
LINE
  5
B4
330
1F
100
AcDbEntity
  8
0
  6
Continuous
 62
     7
370
    25
100
AcDbLine
 10
1086.5855830729
 20
-10017.549329058
 30
0.0
 11
1086.5855830729
 21
-10037.549329058
 31
0.0
  0
LINE
  5
B5
330
1F
100
AcDbEntity
  8
0
  6
Continuous
 62
     7
370
    25
100
AcDbLine
 10
1076.5855830729
 20
-10037.549329058
 30
0.0
 11
1086.5855830729
 21
-10037.549329058
 31
0.0
  0
LINE
  5
B6
330
1F
100
AcDbEntity
  8
0
  6
Continuous
 62
     7
370
    25
100
AcDbLine
 10
1076.5855830729
 20
-10017.549329058
 30
0.0
 11
1076.5855830729
 21
-10037.549329058
 31
0.0
  0
LINE
  5
B7
330
1F
100
AcDbEntity
  8
0
  6
Continuous
 62
     7
370
    25
100
AcDbLine
 10
1076.5855830729
 20
-10017.549329058
 30
0.0
 11
1080.627246798
 21
-10017.549329058
 31
0.0
  0
LINE
  5
B8
330
1F
100
AcDbEntity
  8
0
  6
Continuous
 62
     7
370
    25
100
AcDbLine
 10
1080.5994267051
 20
-10017.3684984543
 30
0.0
 11
1080.627246798
 21
-10017.549329058
 31
0.0
  0
LINE
  5
B9
330
1F
100
AcDbEntity
  8
0
  6
Continuous
 62
     7
370
    25
100
AcDbLine
 10
1071.1054589605
 20
-9991.212426676
 30
0.0
 11
1069.7328371179
 21
-9991.5174537521
 31
0.0
  0
LINE
  5
BA
330
1F
100
AcDbEntity
  8
0
  6
Continuous
 62
     7
370
    25
100
AcDbLine
 10
1069.7328371179
 20
-9991.5174537521
 30
0.0
 11
1068.9702694276
 21
-9989.5347777573
 31
0.0
  0
LINE
  5
BB
330
1F
100
AcDbEntity
  8
0
  6
Continuous
 62
     7
370
    25
100
AcDbLine
 10
1068.9702694276
 20
-9989.5347777573
 30
0.0
 11
1078.4261087877
 21
-9984.1586755404
 31
0.0
  0
LINE
  5
BC
330
1F
100
AcDbEntity
  8
0
  6
Continuous
 62
     7
370
    25
100
AcDbLine
 10
1067.2926205088
 20
-9981.3371750862
 30
0.0
 11
1065.5387148211
 21
-9986.1032231508
 31
0.0
  0
LINE
  5
BD
330
1F
100
AcDbEntity
  8
0
  6
Continuous
 62
     7
370
    25
100
AcDbLine
 10
1065.5387148211
 20
-9986.1032231508
 30
0.0
 11
1064.7761471308
 21
-9984.4255742321
 31
0.0
  0
LINE
  5
BE
330
1F
100
AcDbEntity
  8
0
  6
Continuous
 62
     7
370
    25
100
AcDbLine
 10
1064.7761471308
 20
-9984.4255742321
 30
0.0
 11
1064.0517078249
 21
-9985.6838109211
 31
0.0
  0
LINE
  5
BF
330
1F
100
AcDbEntity
  8
0
  6
Continuous
 62
     7
370
    25
100
AcDbLine
 10
1083.4028316533
 20
-9962.9471751496
 30
0.0
 11
1083.3065420054
 21
-9962.7305234418
 31
0.0
  0
LINE
  5
C0
330
1F
100
AcDbEntity
  8
0
  6
Continuous
 62
     7
370
    25
100
AcDbLine
 10
1083.3065420054
 20
-9962.7305234418
 30
0.0
 11
1083.573440697
 21
-9962.4636247502
 31
0.0
  0
LINE
  5
C1
330
1F
100
AcDbEntity
  8
0
  6
Continuous
 62
     7
370
    25
100
AcDbLine
 10
1083.573440697
 20
-9962.4636247502
 30
0.0
 11
1083.6496974661
 21
-9962.5017531347
 31
0.0
  0
LINE
  5
C2
330
1F
100
AcDbEntity
  8
0
  6
Continuous
 62
     7
370
    25
100
AcDbLine
 10
1102.561376185
 20
-9982.0997427791
 30
0.0
 11
1101.7303933484
 21
-9981.6452154571
 31
0.0
  0
LINE
  5
C3
330
1F
100
AcDbEntity
  8
0
  6
Continuous
 62
     7
370
    25
100
AcDbLine
 10
1101.7303933484
 20
-9981.6452154571
 30
0.0
 11
1101.9140431174
 21
-9982.7471140708
 31
0.0
  0
LINE
  5
C4
330
1F
100
AcDbEntity
  8
0
  6
Continuous
 62
     7
370
    25
100
AcDbLine
 10
1101.9140431174
 20
-9982.7471140708
 30
0.0
 11
1099.2069278167
 21
-9980.1162555391
 31
0.0
  0
LINE
  5
C5
330
1F
100
AcDbEntity
  8
0
  6
Continuous
 62
     7
370
    25
100
AcDbLine
 10
1099.2069278167
 20
-9980.1162555391
 30
0.0
 11
1098.8412677176
 21
-9981.4945128356
 31
0.0
  0
LINE
  5
C6
330
1F
100
AcDbEntity
  8
0
  6
Continuous
 62
     7
370
    25
100
AcDbLine
 10
1098.4830746051
 20
-9981.905735315
 30
0.0
 11
1097.2342159702
 21
-9978.5470160771
 31
0.0
  0
LINE
  5
C7
330
1F
100
AcDbEntity
  8
0
  6
Continuous
 62
     7
370
    25
100
AcDbLine
 10
1094.619892522
 20
-9977.8258958526
 30
0.0
 11
1095.7689694786
 21
-9978.1392947647
 31
0.0
  0
LINE
  5
C8
330
1F
100
AcDbEntity
  8
0
  6
Continuous
 62
     7
370
    25
100
AcDbLine
 10
1092.8352963626
 20
-9977.2977334301
 30
0.0
 11
1094.619892522
 21
-9977.8258958526
 31
0.0
  0
LINE
  5
C9
330
1F
100
AcDbEntity
  8
0
  6
Continuous
 62
     7
370
    25
100
AcDbLine
 10
1088.4623367958
 20
-9975.9968142233
 30
0.0
 11
1088.800425745
 21
-9975.677511039
 31
0.0
  0
LINE
  5
CA
330
1F
100
AcDbEntity
  8
0
  6
Continuous
 62
     7
370
    25
100
AcDbLine
 10
1087.9737934905
 20
-9977.0326853673
 30
0.0
 11
1088.4623367958
 21
-9975.9968142233
 31
0.0
  0
LINE
  5
CB
330
1F
100
AcDbEntity
  8
0
  6
Continuous
 62
     7
370
    25
100
AcDbLine
 10
1087.1660514898
 20
-9978.7366248198
 30
0.0
 11
1087.9737934905
 21
-9977.0326853673
 31
0.0
  0
LINE
  5
CC
330
1F
100
AcDbEntity
  8
0
  6
Continuous
 62
     7
370
    25
100
AcDbLine
 10
1086.9460328196
 20
-9979.2181453143
 30
0.0
 11
1087.1660514898
 21
-9978.7366248198
 31
0.0
  0
LINE
  5
CD
330
1F
100
AcDbEntity
  8
0
  6
Continuous
 62
     7
370
    25
100
AcDbLine
 10
1086.784980452
 20
-9979.5803042443
 30
0.0
 11
1086.9460328196
 21
-9979.2181453143
 31
0.0
  0
LINE
  5
CE
330
1F
100
AcDbEntity
  8
0
  6
Continuous
 62
     7
370
    25
100
AcDbLine
 10
1086.6587860429
 20
-9979.8714737389
 30
0.0
 11
1086.784980452
 21
-9979.5803042443
 31
0.0
  0
LINE
  5
CF
330
1F
100
AcDbEntity
  8
0
  6
Continuous
 62
     7
370
    25
100
AcDbLine
 10
1086.4310083877
 20
-9980.4182877455
 30
0.0
 11
1086.6587860429
 21
-9979.8714737389
 31
0.0
  0
LINE
  5
D0
330
1F
100
AcDbEntity
  8
0
  6
Continuous
 62
     7
370
    25
100
AcDbLine
 10
1086.0804779659
 20
-9981.3371750862
 30
0.0
 11
1086.4310083877
 21
-9980.4182877455
 31
0.0
  0
ENDSEC
  0
SECTION
  2
OBJECTS
  0
DICTIONARY
  5
C
330
0
100
AcDbDictionary
281
     1
  3
ACAD_GROUP
350
D
  3
ACAD_LAYOUT
350
1A
  3
ACAD_MLINESTYLE
350
17
  3
ACAD_PLOTSETTINGS
350
19
  3
ACAD_PLOTSTYLENAME
350
E
  3
ACAD_SCALELIST
350
47
  3
DWGPROPS
350
D1
  0
DICTIONARY
  5
D
102
{ACAD_REACTORS
330
C
102
}
330
C
100
AcDbDictionary
281
     1
  0
DICTIONARY
  5
1A
102
{ACAD_REACTORS
330
C
102
}
330
C
100
AcDbDictionary
281
     1
  3
Layout1
350
1E
  3
Layout2
350
26
  3
Model
350
22
  0
DICTIONARY
  5
17
102
{ACAD_REACTORS
330
C
102
}
330
C
100
AcDbDictionary
281
     1
  3
Standard
350
18
  0
DICTIONARY
  5
19
102
{ACAD_REACTORS
330
C
102
}
330
C
100
AcDbDictionary
281
     1
  0
ACDBDICTIONARYWDFLT
  5
E
102
{ACAD_REACTORS
330
C
102
}
330
C
100
AcDbDictionary
281
     1
  3
Normal
350
F
100
AcDbDictionaryWithDefault
340
F
  0
DICTIONARY
  5
47
102
{ACAD_REACTORS
330
C
102
}
330
C
100
AcDbDictionary
281
     1
  3
A0
350
48
  3
A1
350
49
  3
A2
350
4A
  3
A3
350
4B
  3
A4
350
4C
  3
A5
350
4D
  3
A6
350
4E
  3
A7
350
4F
  3
A8
350
50
  3
A9
350
51
  3
B0
350
52
  3
B1
350
53
  3
B2
350
54
  3
B3
350
55
  3
B4
350
56
  3
B5
350
57
  3
B6
350
58
  0
XRECORD
  5
D1
102
{ACAD_REACTORS
330
C
102
}
330
C
100
AcDbXrecord
280
     1
  1
DWGPROPS COOKIE
  2

  3

  4

  6

  7

  8
201758
  9

300
=
301
=
302
=
303
=
304
=
305
=
306
=
307
=
308
=
309
=
 40
0.0
 41
2460647.738874017
 42
2460647.738900394
  1

 90
        0
  0
LAYOUT
  5
1E
102
{ACAD_REACTORS
330
1A
102
}
330
1A
100
AcDbPlotSettings
  1

  2
none_device
  4

  6

 40
0.0
 41
0.0
 42
0.0
 43
0.0
 44
0.0
 45
0.0
 46
0.0
 47
0.0
 48
0.0
 49
0.0
140
0.0
141
0.0
142
1.0
143
1.0
 70
   688
 72
     1
 73
     0
 74
     5
  7

 75
    16
147
1.0
148
0.0
149
0.0
100
AcDbLayout
  1
Layout1
 70
     1
 71
     1
 10
0.0
 20
0.0
 11
420.0
 21
297.0
 12
0.0
 22
0.0
 32
0.0
 14
1.0000000000E+20
 24
1.0000000000E+20
 34
1.0000000000E+20
 15
-1.0000000000E+20
 25
-1.0000000000E+20
 35
-1.0000000000E+20
146
0.0
 13
0.0
 23
0.0
 33
0.0
 16
1.0
 26
0.0
 36
0.0
 17
0.0
 27
1.0
 37
0.0
 76
     0
330
1B
  0
LAYOUT
  5
26
102
{ACAD_REACTORS
330
1A
102
}
330
1A
100
AcDbPlotSettings
  1

  2
none_device
  4

  6

 40
0.0
 41
0.0
 42
0.0
 43
0.0
 44
0.0
 45
0.0
 46
0.0
 47
0.0
 48
0.0
 49
0.0
140
0.0
141
0.0
142
1.0
143
1.0
 70
   688
 72
     1
 73
     0
 74
     5
  7

 75
    16
147
1.0
148
0.0
149
0.0
100
AcDbLayout
  1
Layout2
 70
     1
 71
     2
 10
0.0
 20
0.0
 11
0.0
 21
0.0
 12
0.0
 22
0.0
 32
0.0
 14
0.0
 24
0.0
 34
0.0
 15
0.0
 25
0.0
 35
0.0
146
0.0
 13
0.0
 23
0.0
 33
0.0
 16
1.0
 26
0.0
 36
0.0
 17
0.0
 27
1.0
 37
0.0
 76
     0
330
23
  0
LAYOUT
  5
22
102
{ACAD_REACTORS
330
1A
102
}
330
1A
100
AcDbPlotSettings
  1

  2
none_device
  4
ANSI_A_(11.00_x_8.50_Inches)
  6

 40
6.35
 41
19.05
 42
6.35000508
 43
19.05000254
 44
279.4
 45
215.9
 46
-2881.5160895015
 47
27916.7514772121
 48
0.0
 49
0.0
140
0.0
141
0.0
142
0.1095678006
143
1.0
 70
  1696
 72
     0
 73
     0
 74
     0
  7

 75
     0
147
0.0179189148
148
-1300.4909072572
149
0.0
100
AcDbLayout
  1
Model
 70
     1
 71
     0
 10
0.0
 20
0.0
 11
420.0
 21
297.0
 12
0.0
 22
0.0
 32
0.0
 14
1064.0517078249
 24
-10037.549329058
 34
0.0
 15
1102.561376185
 25
-9960.7475684107
 35
0.0
146
0.0
 13
0.0
 23
0.0
 33
0.0
 16
1.0
 26
0.0
 36
0.0
 17
0.0
 27
1.0
 37
0.0
 76
     0
330
1F
331
29
  0
MLINESTYLE
  5
18
102
{ACAD_REACTORS
330
17
102
}
330
17
100
AcDbMlineStyle
  2
Standard
 70
     0
  3

 62
   256
 51
90.0
 52
90.0
 71
     2
 49
0.5
 62
   256
  6
BYLAYER
 49
-0.5
 62
   256
  6
BYLAYER
  0
ACDBPLACEHOLDER
  5
F
102
{ACAD_REACTORS
330
E
102
}
330
E
  0
SCALE
  5
48
102
{ACAD_REACTORS
330
47
102
}
330
47
100
AcDbScale
 70
     0
300
1:1
140
1.0
141
1.0
290
     1
  0
SCALE
  5
49
102
{ACAD_REACTORS
330
47
102
}
330
47
100
AcDbScale
 70
     0
300
1:2
140
1.0
141
2.0
290
     0
  0
SCALE
  5
4A
102
{ACAD_REACTORS
330
47
102
}
330
47
100
AcDbScale
 70
     0
300
1:4
140
1.0
141
4.0
290
     0
  0
SCALE
  5
4B
102
{ACAD_REACTORS
330
47
102
}
330
47
100
AcDbScale
 70
     0
300
1:5
140
1.0
141
5.0
290
     0
  0
SCALE
  5
4C
102
{ACAD_REACTORS
330
47
102
}
330
47
100
AcDbScale
 70
     0
300
1:8
140
1.0
141
8.0
290
     0
  0
SCALE
  5
4D
102
{ACAD_REACTORS
330
47
102
}
330
47
100
AcDbScale
 70
     0
300
1:10
140
1.0
141
10.0
290
     0
  0
SCALE
  5
4E
102
{ACAD_REACTORS
330
47
102
}
330
47
100
AcDbScale
 70
     0
300
1:16
140
1.0
141
16.0
290
     0
  0
SCALE
  5
4F
102
{ACAD_REACTORS
330
47
102
}
330
47
100
AcDbScale
 70
     0
300
1:20
140
1.0
141
20.0
290
     0
  0
SCALE
  5
50
102
{ACAD_REACTORS
330
47
102
}
330
47
100
AcDbScale
 70
     0
300
1:30
140
1.0
141
30.0
290
     0
  0
SCALE
  5
51
102
{ACAD_REACTORS
330
47
102
}
330
47
100
AcDbScale
 70
     0
300
1:40
140
1.0
141
40.0
290
     0
  0
SCALE
  5
52
102
{ACAD_REACTORS
330
47
102
}
330
47
100
AcDbScale
 70
     0
300
1:50
140
1.0
141
50.0
290
     0
  0
SCALE
  5
53
102
{ACAD_REACTORS
330
47
102
}
330
47
100
AcDbScale
 70
     0
300
1:100
140
1.0
141
100.0
290
     0
  0
SCALE
  5
54
102
{ACAD_REACTORS
330
47
102
}
330
47
100
AcDbScale
 70
     0
300
2:1
140
2.0
141
1.0
290
     0
  0
SCALE
  5
55
102
{ACAD_REACTORS
330
47
102
}
330
47
100
AcDbScale
 70
     0
300
4:1
140
4.0
141
1.0
290
     0
  0
SCALE
  5
56
102
{ACAD_REACTORS
330
47
102
}
330
47
100
AcDbScale
 70
     0
300
8:1
140
8.0
141
1.0
290
     0
  0
SCALE
  5
57
102
{ACAD_REACTORS
330
47
102
}
330
47
100
AcDbScale
 70
     0
300
10:1
140
10.0
141
1.0
290
     0
  0
SCALE
  5
58
102
{ACAD_REACTORS
330
47
102
}
330
47
100
AcDbScale
 70
     0
300
100:1
140
100.0
141
1.0
290
     0
  0
ENDSEC
  0
EOF
